<svg version="1.2" xmlns="http://www.w3.org/2000/svg" viewBox="0 0 300 300" width="300" height="300">
	<title>IPFS_Logo-svg</title>
	<style>
		.s0 { fill: #ffffff } 
	</style>
	<path id="Layer" class="s0" d="m145.6 266q-0.1 0-0.2 0-0.1 0-0.2-0.1-0.1 0-0.1 0-0.1-0.1-0.2-0.1-53.1-27.2-106.3-54.4-0.2 0-0.3-0.1-0.1-0.1-0.2-0.2 0-0.1-0.1-0.3 0-0.1 0-0.3 0-12.1 0-24.2 0-0.2 0-0.3 0.1-0.2 0.1-0.3 0-0.2 0-0.3 0.1-0.1 0.1-0.3 0.6-1.6 1.2-3.2 0.7-1.6 1.4-3.2 0.7-1.6 1.5-3.2 0.7-1.5 1.6-3 1.7-3.2 3.7-6.1 2-3 4.3-5.7 2.3-2.8 4.7-5.4 2.5-2.5 5.3-4.8 2.8-2.4 5.9-4.5 3.1-2 6.4-3.7 3.3-1.7 6.8-3.1 3.4-1.4 7-2.4 2.1-0.6 4.2-1.1 2.1-0.5 4.2-1 2.2-0.4 4.3-0.7 2.1-0.3 4.3-0.5 2.3-0.3 4.7-0.4 2.3-0.1 4.7-0.2 2.3 0 4.7 0 2.3 0.1 4.7 0.3 2.7 0.2 5.4 0.5 2.6 0.3 5.3 0.7 2.7 0.5 5.3 1 2.7 0.6 5.3 1.2c0.4 0.1 0.6 0.2 0.5 0.6q0 0 0 0.1 0 0 0 0 0 0.1 0 0.1 0 0 0 0.1v128.5z"/>
	<path id="Layer" class="s0" d="m38.1 75.5c2-0.8 4-1.4 5.9-2.1l31.4-11.3 38.6-13.9 31.1-11.1q0.1-0.1 0.2-0.1 0.2 0 0.3 0 0.1 0 0.2 0 0.2 0 0.3 0.1l29.3 10.5 42.9 15.5 26.3 9.4 8.3 3c0 0.2-0.2 0.2-0.4 0.3l-52.1 20.4-40.2 15.7-14.1 5.6q-0.1 0-0.1 0-0.1 0-0.2 0.1 0 0-0.1 0-0.1 0-0.2 0c-1.1-0.3-2.2-0.8-3.3-1.2l-41.5-16.3-23.6-9.2-34.2-13.4c-1.6-0.7-3.2-1.2-4.7-1.9z"/>
	<path id="Layer" class="s0" d="m38.1 75.5c1.6 0.8 3.2 1.3 4.8 2l34.2 13.4 23.6 9.2 41.5 16.3c1.1 0.4 2.2 1 3.3 1.2 0 3.5 0 7 0 10.5 0 0.4-0.1 0.3-0.4 0.3q-1.3-0.3-2.6-0.6-1.3-0.2-2.6-0.4-1.3-0.3-2.6-0.5-1.3-0.1-2.6-0.3-2.3-0.3-4.6-0.5-2.3-0.2-4.6-0.3-2.3-0.1-4.6-0.1-2.2 0-4.5 0-3.5 0-6.9 0.3-3.5 0.3-6.9 0.8-3.4 0.5-6.8 1.2-3.3 0.8-6.6 1.7-2.9 0.8-5.7 1.8-2.7 1-5.4 2.2-2.7 1.2-5.3 2.7-2.5 1.4-5 3-2.5 1.9-4.9 3.9-2.4 2-4.7 4.1-2.2 2.2-4.2 4.6-2.1 2.4-3.9 4.9-1.7 2.3-3.4 4.7-1.6 2.5-3 5-1.5 2.5-2.9 5.1-1.3 2.5-2.5 5.2l-0.2 0.3c-0.2-0.1-0.1-0.3-0.1-0.4q0-50.4 0-100.8c0-0.1-0.1-0.3 0.1-0.5z"/>
	<path id="Layer" fill-rule="evenodd" class="s0" d="m155.9 262.5c0-32.6 0-65.9 0-98.6q0-0.1 0-0.3 0.1-0.1 0.2-0.3 0.1-0.1 0.2-0.2 0.1-0.1 0.3-0.2c6-2.5 12.1-5.1 18.1-7.7q0.7-0.3 1.4-0.5 0.7-0.3 1.5-0.5 0.7-0.2 1.4-0.3 0.8-0.1 1.5-0.2 1.5-0.2 2.9 0 1.4 0.3 2.7 1 1.2 0.8 2.2 1.9 0.9 1.1 1.4 2.5 0.3 0.8 0.5 1.6 0.3 0.8 0.5 1.6 0.1 0.9 0.2 1.7 0.1 0.8 0.2 1.7c0.2 7.2 0.1 14.3 0 21.5q0 1.9-0.2 3.8-0.2 1.9-0.7 3.8-0.4 1.8-1.1 3.6-0.7 1.8-1.5 3.5-1.1 2.1-2.6 3.9-1.4 1.9-3.1 3.6-1.7 1.6-3.6 3-1.9 1.3-4.1 2.3-3.2 1.7-6.4 3.3-0.2 0-0.3 0.1-0.1 0.1-0.2 0.2 0 0.2-0.1 0.3 0 0.1 0 0.3 0 18.6 0 37.1 0 0.2 0 0.3 0 0.2-0.1 0.3-0.1 0.1-0.2 0.2-0.1 0.1-0.3 0.2-5.1 2.6-10.1 5.2zm11.3-56.1c2.7-1.4 5.4-2.5 7.9-4q0.3-0.2 0.6-0.5 0.4-0.2 0.7-0.5 0.3-0.3 0.6-0.6 0.3-0.3 0.5-0.7 0.7-0.9 1.3-2 0.5-1.1 0.9-2.2 0.4-1.2 0.6-2.3 0.2-1.2 0.1-2.5c0.1-6 0.1-12 0-18q0.1-0.5 0-1.1-0.1-0.6-0.2-1.2-0.1-0.6-0.3-1.1-0.2-0.6-0.5-1.1-0.2-0.5-0.5-0.9-0.4-0.3-0.9-0.6-0.4-0.3-0.9-0.4-0.5-0.1-1.1 0-0.3 0-0.6 0.1-0.3 0.1-0.6 0.1-0.3 0.1-0.6 0.2-0.3 0.2-0.5 0.3c-2 0.9-4 1.7-5.9 2.6q-0.2 0-0.3 0.1-0.1 0.1-0.2 0.2-0.1 0.1-0.1 0.3 0 0.1 0 0.2 0 17.4 0 34.8z"/>
	<path id="Layer" class="s0" d="m233.5 193c0 3.3 0 6.5 0 9.7q0 0.6 0 1.1 0.1 0.5 0.1 1 0.1 0.5 0.2 1 0.1 0.5 0.3 1 0 0.1 0 0.2 0.1 0.1 0.1 0.2 0.1 0.1 0.1 0.2 0 0.1 0.1 0.2 0.2 0.6 0.6 1 0.5 0.5 1 0.7 0.6 0.2 1.2 0.2 0.6 0 1.2-0.2 0.7-0.3 1.4-0.7 0.7-0.4 1.4-0.9 0.6-0.5 1.1-1 0.6-0.6 1-1.3 0.5-0.8 0.9-1.6 0.4-0.8 0.8-1.7 0.3-0.8 0.5-1.7 0.2-0.9 0.2-1.8 0.2-1.1 0.3-2.2 0-1.2 0-2.3 0-1.1-0.1-2.3-0.2-1.1-0.4-2.2-0.1-0.9-0.5-1.8-0.3-0.9-0.8-1.7-0.5-0.8-1.1-1.6-0.6-0.7-1.3-1.3c-3.5-3-6.9-6.2-10.5-9.2q-1.3-1.1-2.4-2.4-1.1-1.3-1.9-2.8-0.8-1.5-1.3-3.2-0.5-1.6-0.7-3.3-0.3-2.2-0.5-4.4-0.1-2.2 0-4.4 0.1-2.2 0.4-4.4 0.3-2.2 0.8-4.3 0.4-1.9 1-3.7 0.7-1.8 1.6-3.5 0.9-1.7 2.1-3.3 1.1-1.5 2.5-2.9 1.1-1.2 2.4-2.1 1.2-1 2.6-1.8 1.5-0.7 3-1.3 1.5-0.5 3-0.8c4.2-0.9 7.4 0.8 9.2 4.7q0.3 0.9 0.6 1.8 0.3 0.9 0.5 1.8 0.2 0.9 0.3 1.9 0.1 0.9 0.1 1.8c0 3.9 0 7.8 0 11.7q0 0.1 0 0.1 0 0.1 0 0.2-0.1 0.1-0.2 0.1 0 0.1-0.1 0.1l-8.4 4q-0.1 0-0.1 0 0 0 0 0-0.1 0-0.1 0 0 0-0.1 0v-0.6q0-4.6 0-9.2 0.1-0.5 0-1 0-0.6-0.1-1.1-0.1-0.5-0.2-1-0.1-0.6-0.2-1.1-0.1-0.4-0.4-0.9-0.2-0.4-0.5-0.8-0.4-0.3-0.8-0.6-0.5-0.2-1-0.3-0.2 0-0.5 0-0.3 0-0.6 0-0.3 0.1-0.5 0.2-0.3 0-0.6 0.2-0.7 0.2-1.3 0.6-0.6 0.4-1.1 0.9-0.5 0.5-1 1.1-0.4 0.6-0.7 1.2-0.4 0.8-0.7 1.5-0.3 0.8-0.6 1.5-0.2 0.8-0.3 1.6-0.2 0.8-0.3 1.6-0.1 1.1-0.2 2.2 0 1.2 0 2.3 0.1 1.1 0.2 2.3 0.1 1.1 0.3 2.2 0.2 0.9 0.6 1.7 0.3 0.9 0.8 1.7 0.4 0.8 1 1.5 0.6 0.7 1.3 1.3c3.5 3.2 7 6.4 10.5 9.5q1.2 1 2.2 2.3 1 1.2 1.7 2.6 0.8 1.4 1.2 2.9 0.5 1.5 0.7 3.1 0.4 2.3 0.5 4.6 0.1 2.3 0 4.6-0.1 2.3-0.5 4.6-0.4 2.3-1 4.5-0.6 2.3-1.6 4.5-0.9 2.2-2.3 4.3-1.3 2-2.9 3.8-1.6 1.8-3.5 3.3-0.9 0.8-1.9 1.5-1.1 0.6-2.1 1.2-1.1 0.5-2.3 1-1.1 0.4-2.3 0.7-0.5 0.1-0.9 0.2-0.5 0.1-1 0.1-0.5 0-1 0-0.5-0.1-0.9-0.1-0.7-0.2-1.4-0.5-0.7-0.3-1.3-0.7-0.5-0.4-1-0.9-0.5-0.6-0.9-1.2-0.4-0.7-0.7-1.5-0.4-0.8-0.6-1.6-0.3-0.9-0.4-1.7-0.2-0.8-0.3-1.7 0-0.6-0.1-1.2 0-0.6 0-1.2-0.1-0.6-0.1-1.3 0-0.6 0-1.2 0-4.3 0-8.7c0-0.3 0-0.5 0.3-0.7z"/>
	<path id="Layer" class="s0" d="m221.2 135.3v2.3q0 4.1 0 8.2 0 0.1 0 0.3-0.1 0.1-0.1 0.2-0.1 0.1-0.2 0.2-0.1 0.1-0.2 0.1l-13.9 6.1q-0.1 0.1-0.2 0.1-0.1 0.1-0.2 0.2 0 0.1-0.1 0.2 0 0.1 0 0.2 0 14.6 0 29.2v0.5l13.2-6.4v0.7q0 5 0 10.1 0 0.1 0 0.2-0.1 0.2-0.1 0.3-0.1 0.1-0.2 0.2-0.1 0.1-0.2 0.1c-4 2-8 4-12 5.9q-0.2 0.1-0.3 0.2-0.1 0.1-0.2 0.2-0.1 0.2-0.2 0.3 0 0.2 0 0.3 0 20.5 0 41 0.1 0.2 0 0.3 0 0.1-0.1 0.3-0.1 0.1-0.2 0.2-0.1 0.1-0.2 0.1c-3.1 1.5-6.1 3-9.2 4.6q-0.1 0-0.1 0-0.1 0.1-0.2 0.1 0 0-0.1 0-0.1 0.1-0.2 0.1v-0.7q0-47.2 0-94.5 0-0.1 0-0.3 0-0.1 0.1-0.3 0.1-0.1 0.2-0.2 0.2-0.1 0.3-0.2 12-5.1 24-10.2 0.1-0.1 0.1-0.1 0.1 0 0.2-0.1 0.1 0 0.1 0 0.1 0 0.2 0z"/>
	<path id="Layer" class="s0" d="m173.3 140.7c0.1-4.8 1.2-9.5 2-14.2 0.4-2.7 0.8-5.4 1.3-8 0-0.3 0-0.5 0.3-0.6l5.1-2q0 0 0.1 0 0 0 0 0 0.1 0 0.1 0 0 0 0.1 0v0.8q0 12.1 0 24.2 0 0.2 0 0.4-0.1 0.1-0.2 0.3-0.1 0.1-0.2 0.2-0.1 0.1-0.3 0.1c-0.9 0.4-1.8 0.8-2.8 1.2 0.1-7.3-0.2-14.5 0-21.7q-0.3 2.2-0.7 4.4l-2.6 16.4c-0.1 0.6-0.3 1.1-0.3 1.7q0 0.2 0 0.4-0.1 0.1-0.2 0.3-0.1 0.1-0.3 0.2-0.1 0.1-0.3 0.2c-0.9 0.3-1.7 0.7-2.6 1.1-0.4 0.1-0.5 0.1-0.5-0.3q-1.9-10-3.8-19.9 0-0.1 0-0.1 0 0 0 0 0-0.1 0-0.1-0.1 0-0.1 0c0.1 1 0.1 2 0.2 2.9 0.1 6.3 0 12.6 0 18.8q0 0.1 0 0.2 0 0.1 0 0.2-0.1 0-0.2 0.1 0 0-0.1 0.1-1.4 0.5-2.8 1.2c-0.4 0.1-0.5 0.1-0.5-0.3q0-2.2 0-4.4 0-10.4 0-20.7 0-0.2 0-0.3 0.1-0.1 0.1-0.2 0.1-0.2 0.2-0.2 0.1-0.1 0.3-0.1 2.4-1 4.8-2c0.3-0.1 0.4 0 0.5 0.3 1 5 1.9 10.1 2.9 15.2 0.3 1.3 0.3 2.7 0.5 4.2z"/>
	<path id="Layer" fill-rule="evenodd" class="s0" d="m212.6 128.7c0-7.9 0-16.6 0-24.5q-0.1-0.1 0-0.3 0-0.1 0.1-0.2 0.1-0.1 0.2-0.2 0.1-0.1 0.2-0.1c1.8-0.7 3.5-1.4 5.2-2q0.3-0.2 0.6-0.2 0.3-0.1 0.6-0.2 0.3 0 0.6-0.1 0.4 0 0.7 0 0.3 0 0.7 0.1 0.3 0.1 0.6 0.3 0.3 0.2 0.5 0.5 0.2 0.3 0.3 0.6 0.1 0.1 0.2 0.3 0.1 0.2 0.1 0.3 0 0.2 0.1 0.4 0 0.2 0 0.3 0.1 0.6 0.1 1.2 0 0.6 0 1.2 0 0.6 0 1.2 0 0.7-0.1 1.3 0 0.5-0.2 1-0.2 0.6-0.4 1.1-0.3 0.5-0.6 0.9-0.4 0.5-0.8 0.9c1.7 0.3 2 1.6 2 3q0 4.1 0 8.2 0 0.1 0 0.2 0 0.1-0.1 0.1 0 0.1-0.1 0.2-0.1 0-0.1 0-1.4 0.6-2.7 1.2c-0.4 0.1-0.4 0-0.4-0.3q0-3.9 0-7.8c0-2-0.7-2.4-2.5-1.7-0.5 0.2-1.1 0.3-1.4 0.7-0.3 0.4-0.1 1-0.1 1.5q0 4.4 0 8.9 0 0.1 0 0.2 0 0.1-0.1 0.3-0.1 0.1-0.2 0.1-0.1 0.1-0.2 0.2-1.3 0.6-2.8 1.2zm3.4-19.4q0 1.8 0 3.7c0 0.3 0 0.5 0.5 0.3 0.4-0.2 1-0.4 1.5-0.6q0.3-0.2 0.7-0.4 0.3-0.3 0.5-0.6 0.3-0.3 0.4-0.6 0.2-0.4 0.3-0.8 0-0.3 0.1-0.6 0-0.4 0-0.7 0-0.3 0-0.6 0-0.3 0-0.7 0-0.2 0-0.5 0-0.2 0-0.5 0-0.2 0-0.5 0-0.3 0-0.5c-0.1-1.2-0.8-1.6-1.9-1.2-0.5 0.2-1.1 0.4-1.7 0.6q-0.1 0.1-0.2 0.1 0 0.1-0.1 0.2 0 0-0.1 0.1 0 0.1 0 0.2 0 1.8 0 3.6z"/>
	<path id="Layer" fill-rule="evenodd" class="s0" d="m186.5 139.7c0-8.1 0-16.9 0-25q0-0.2 0-0.3 0-0.1 0.1-0.2 0.1-0.1 0.2-0.2 0.1-0.1 0.2-0.1c1.9-0.8 3.8-1.6 5.7-2.3q0.3-0.1 0.6-0.2 0.2-0.1 0.5-0.1 0.3-0.1 0.6-0.1 0.2-0.1 0.5-0.1 0.5 0 1 0.1 0.5 0.1 0.9 0.4 0.4 0.3 0.7 0.8 0.2 0.4 0.2 0.9 0.2 1.1 0.3 2.1 0.1 1.1 0.1 2.1-0.1 1-0.2 2.1 0 1-0.2 2-0.2 0.8-0.5 1.5-0.3 0.7-0.8 1.3-0.4 0.6-1 1.1-0.6 0.5-1.2 0.9-0.5 0.2-0.9 0.4-0.4 0.3-0.9 0.5-0.4 0.2-0.9 0.4-0.4 0.1-0.9 0.3-0.1 0-0.2 0.1-0.1 0.1-0.2 0.2-0.1 0.1-0.1 0.2 0 0.1 0 0.3c0 3 0 5.9 0 8.8q0 0.2 0 0.3-0.1 0.1-0.1 0.2-0.1 0.1-0.2 0.2-0.1 0.1-0.2 0.1c-1 0.4-2 0.9-3.1 1.3zm3.6-19.3q0 2.1 0 4.2c0 0.5 0.1 0.5 0.5 0.3 0.4-0.1 1.1-0.4 1.6-0.6q0.5-0.2 0.8-0.5 0.4-0.2 0.7-0.6 0.2-0.3 0.4-0.8 0.2-0.4 0.2-0.8 0.1-0.7 0.1-1.4 0-0.7 0-1.4 0-0.7 0-1.5 0-0.7-0.1-1.4c0-1-0.8-1.4-1.8-1.1-0.7 0.2-1.3 0.5-2 0.8q-0.1 0-0.2 0-0.1 0.1-0.2 0.2 0 0.1 0 0.2-0.1 0.1-0.1 0.2c0.1 1.4 0.1 2.8 0.1 4.2z"/>
	<path id="Layer" fill-rule="evenodd" class="s0" d="m232.4 120.3c0.2-1.1 0.3-2.1 0.4-3.1l2.1-14q0.7-4.3 1.3-8.6 0-0.1 0-0.2 0.1-0.1 0.1-0.2 0.1 0 0.1-0.1 0.1 0 0.2 0 1.8-0.7 3.6-1.5c0.4-0.1 0.4 0 0.4 0.3l2.9 17.4q0.4 2.3 0.8 4.6c0 0.3 0 0.5-0.4 0.6q-1.2 0.5-2.4 1c-0.4 0.2-0.5 0.1-0.6-0.3-0.2-1.6-0.4-3.2-0.6-4.8 0-0.5-0.1-0.6-0.6-0.4q-1.4 0.6-2.7 1.1-0.1 0-0.2 0.1-0.1 0.1-0.2 0.1 0 0.1-0.1 0.2 0 0.1 0 0.2c-0.2 1.9-0.4 3.7-0.6 5.5q0 0.2-0.1 0.3 0 0.2-0.1 0.3-0.1 0.2-0.3 0.3-0.1 0.1-0.3 0.1c-0.9 0.3-1.7 0.7-2.7 1.1zm4.6-10.9l2-0.8c0.9-0.4 0.8-0.4 0.7-1.3q-0.4-3.5-0.9-7c-0.1-1.2-0.2-2.3-0.4-3.5-0.3 4.2-1 8.4-1.4 12.6z"/>
	<path id="Layer" class="s0" d="m209.7 127q0 1.3 0 2.6c0 0.3-0.1 0.4-0.3 0.4q-4 1.7-8 3.4c-0.5 0.2-0.4-0.2-0.4-0.4q0-8.6 0-17.2 0-3.5 0-7 0-0.1 0-0.2 0.1-0.1 0.1-0.2 0.1-0.1 0.2-0.2 0.1-0.1 0.2-0.1c2.6-1 5.2-2 7.7-3.1 0.4-0.2 0.6-0.1 0.5 0.4q0 1 0 2 0.1 0.1 0 0.2 0 0.1-0.1 0.2 0 0.1-0.1 0.2-0.1 0-0.2 0c-1.4 0.6-2.9 1.2-4.3 1.8q-0.1 0-0.2 0.1-0.1 0-0.2 0.1 0 0.1-0.1 0.2 0 0.1 0 0.2 0 3.3 0 6.6c0 0.5 0.2 0.5 0.6 0.4q1.8-0.8 3.5-1.5c0.5-0.2 0.5-0.1 0.5 0.3q0 1.1 0 2.1 0 0.1 0 0.3 0 0.1-0.1 0.1 0 0.1-0.1 0.2-0.1 0-0.2 0.1-1.9 0.7-3.7 1.5-0.1 0-0.2 0.1-0.1 0-0.1 0.1-0.1 0.1-0.1 0.2-0.1 0.1-0.1 0.2 0 3.8 0 7.5c0 0.5 0.1 0.5 0.5 0.3l4-1.7q0.1 0 0.2-0.1 0.1 0 0.2 0 0-0.1 0.1-0.1 0.1 0 0.2 0z"/>
	<path id="Layer" class="s0" d="m159.7 124.8v0.5q0 12.6 0 25.2 0 0.1 0 0.3 0 0.1-0.1 0.2-0.1 0.1-0.2 0.2-0.1 0.1-0.2 0.1-1.4 0.5-2.8 1.1c-0.5 0.3-0.5 0.1-0.5-0.3q0-9.9 0-19.8 0-2.7 0-5.5 0-0.1 0-0.2 0-0.1 0.1-0.2 0-0.1 0.1-0.2 0.1 0 0.3-0.1c1-0.4 2.1-0.8 3.3-1.3z"/>
	<path id="Layer" class="s0" d="m246.4 114.4v-0.7q0-11.5 0-23 0-0.1 0-0.3 0.1-0.1 0.1-0.3 0.1-0.1 0.3-0.2 0.1-0.1 0.2-0.1 1.2-0.4 2.3-0.9c0.3-0.1 0.4 0 0.4 0.3q0 0.2 0 0.4v20.4c0.1 0.1 0.3 0 0.4-0.1q2-0.8 3.9-1.6c0.3-0.2 0.5-0.2 0.4 0.3 0 0.8 0.3 1.7-0.1 2.3-0.3 0.6-1.3 0.6-2 1-1.9 0.8-3.9 1.6-5.9 2.5z"/>
	<path id="Layer" class="s0" d="m230.3 96.6v0.6q0 11.7 0 23.4 0 0.1-0.1 0.3 0 0.1-0.1 0.3-0.1 0.1-0.2 0.2-0.1 0-0.3 0.1c-0.9 0.3-1.7 0.7-2.7 1.1v-0.6q0-11.7 0-23.5 0-0.1 0-0.3 0-0.1 0.1-0.2 0.1-0.1 0.2-0.2 0.1-0.1 0.3-0.1c0.9-0.4 1.8-0.8 2.8-1.1z"/>
	<path id="Layer" fill-rule="evenodd" class="s0" d="m263.2 225.8c-3.6 0-6.9-2.2-8.2-5.5-1.4-3.3-0.6-7.1 1.9-9.7 2.6-2.5 6.4-3.2 9.7-1.9 3.3 1.4 5.5 4.7 5.5 8.3-0.1 1.1-0.3 2.3-0.7 3.4-0.5 1-1.1 2-2 2.8-0.8 0.8-1.8 1.5-2.8 1.9-1.1 0.5-2.3 0.7-3.4 0.7zm7.4-8.9c0-3-1.9-5.6-4.6-6.8-2.8-1.1-5.9-0.5-8 1.6-2.1 2.2-2.8 5.3-1.6 8.1 1.1 2.7 3.8 4.5 6.8 4.5q1.5 0 2.8-0.5 1.4-0.6 2.4-1.6 1.1-1.1 1.6-2.4 0.6-1.4 0.6-2.9z"/>
	<path id="Layer" fill-rule="evenodd" class="s0" d="m264.1 217.6c1.5 1.1 2.2 2.7 3.2 4.2q-0.2 0-0.4 0-0.2 0-0.4 0.1-0.2 0-0.5 0-0.2 0-0.4 0c-0.2 0-0.3-0.3-0.4-0.4-0.5-0.9-1-1.8-1.6-2.7q-0.2-0.3-0.5-0.5-0.2-0.2-0.6-0.4-0.3-0.1-0.7-0.1-0.3-0.1-0.7 0c-0.3 0-0.2 0.2-0.2 0.4 0 1 0 2.1 0 3.1 0 0.5-0.2 0.6-0.6 0.6-1 0-1 0-1-1q0-4 0-8c0-0.4 0.1-0.6 0.5-0.6 1.4 0.1 2.7 0 4 0.1 1.7 0.2 2.7 1 2.9 2.3 0.1 1.4-0.9 2.5-2.6 2.9zm-1.9-4h-1c-0.2 0-0.4 0-0.3 0.3q0 1.2 0 2.3c0 0.2 0 0.3 0.2 0.3q0.4 0 0.7 0 0.4 0 0.7 0 0.3 0 0.7-0.1 0.3 0 0.7 0 0.2-0.1 0.4-0.2 0.2-0.1 0.4-0.3 0.2-0.2 0.2-0.4 0.1-0.3 0.1-0.5 0-0.3-0.1-0.5-0.1-0.2-0.3-0.4-0.2-0.2-0.4-0.3-0.2-0.1-0.5-0.1c-0.5-0.1-1-0.1-1.5-0.1z"/>
</svg>