<?xml version="1.0" encoding="utf-8"?>
<!-- Generator: Adobe Illustrator 27.3.1, SVG Export Plug-In . SVG Version: 6.00 Build 0)  -->
<svg version="1.1" id="Layer_1" xmlns="http://www.w3.org/2000/svg" xmlns:xlink="http://www.w3.org/1999/xlink" x="0px" y="0px"
	 width="1711.3px" height="1404.52px" viewBox="0 0 1711.3 1404.52" style="enable-background:new 0 0 1711.3 1404.52;"
	 xml:space="preserve">
<style type="text/css">
	.st0{fill:none;stroke:#CCCCCC;stroke-width:3;stroke-miterlimit:10;}
	.st1{fill:#FFFFFF;stroke:#FFFFFF;stroke-width:3;stroke-miterlimit:10;}
	.st2{fill:none;stroke:#24466D;stroke-width:4;stroke-miterlimit:10;}
	.st3{fill:none;stroke:#F3C749;stroke-width:4;stroke-miterlimit:10;}
	.st4{fill:none;stroke:#CD6126;stroke-width:4;stroke-miterlimit:10;}
	.st5{fill:none;stroke:#8CB837;stroke-width:4;stroke-miterlimit:10;}
	.st6{fill:none;stroke:#6BB3DD;stroke-width:4;stroke-miterlimit:10;}
	.st7{fill:#F3C749;}
	.st8{fill:#CD6126;}
	.st9{fill:#8CB837;}
	.st10{fill:#6BB3DD;}
	.st11{fill:#24466D;}
	.st12{fill:#184771;}
	.st13{fill:#D9D9D9;}
	.st14{opacity:0.5;fill:#6BB3DD;}
	.st15{fill:#184770;}
	.st16{fill-rule:evenodd;clip-rule:evenodd;fill:#184770;}
	.st17{fill-rule:evenodd;clip-rule:evenodd;fill:none;stroke:#184770;stroke-width:5;stroke-miterlimit:10;}
	.st18{fill:#92A2B6;}
	.st19{fill:#25466D;}
</style>
<g>
	<g>
		<path class="st0" d="M1080.39,1239.59c2.07-0.75,3.23-3.09,2.57-5.19l-3.9-12.59c-0.65-2.1-2.93-3.37-5.06-2.82l-12.65,3.26
			c-2.13,0.55-4.72-0.59-5.75-2.53l-12.09-19.24c-1.31-1.77-1.23-4.59,0.19-6.28l8.38-9.99c1.41-1.69,1.25-4.29-0.37-5.78
			l-9.67-8.95c-1.61-1.49-4.22-1.46-5.79,0.08l-9.33,9.15c-1.57,1.54-4.38,1.85-6.25,0.68l-20.1-10.59
			c-2.02-0.88-3.35-3.37-2.97-5.54l2.27-12.87c0.38-2.17-1.06-4.34-3.21-4.82l-12.85-2.91c-2.15-0.49-4.38,0.85-4.97,2.97
			l-3.5,12.57c-0.59,2.12-2.87,3.79-5.07,3.7l-22.7,0.91c-2.19,0.25-4.59-1.24-5.34-3.31l-4.47-12.27
			c-0.75-2.07-3.09-3.23-5.19-2.57l-12.59,3.9c-2.1,0.65-3.37,2.93-2.82,5.06l3.26,12.65c0.55,2.13-0.59,4.72-2.53,5.75
			l-19.24,12.09c-1.77,1.31-4.59,1.23-6.28-0.19l-9.99-8.38c-1.69-1.41-4.29-1.25-5.78,0.37l-8.95,9.68
			c-1.49,1.61-1.46,4.22,0.08,5.79l9.15,9.33c1.54,1.57,1.85,4.38,0.68,6.25l-10.59,20.1c-0.88,2.02-3.37,3.35-5.54,2.97
			l-12.86-2.27c-2.17-0.38-4.34,1.06-4.82,3.21l-2.91,12.85c-0.49,2.15,0.85,4.38,2.97,4.97l12.57,3.5c2.12,0.59,3.79,2.87,3.7,5.07
			l0.91,22.7c0.25,2.19-1.24,4.59-3.31,5.34l-12.27,4.47c-2.07,0.75-3.23,3.09-2.57,5.19l3.9,12.59c0.65,2.1,2.93,3.37,5.06,2.82
			l12.65-3.26c2.13-0.55,4.72,0.59,5.75,2.53l12.09,19.24c1.31,1.77,1.23,4.59-0.19,6.28l-8.38,9.99c-1.41,1.69-1.25,4.29,0.37,5.78
			l9.67,8.95c1.61,1.49,4.22,1.46,5.79-0.08l9.33-9.15c1.57-1.54,4.38-1.85,6.25-0.68l20.1,10.58c2.02,0.88,3.35,3.37,2.97,5.54
			l-2.27,12.87c-0.38,2.17,1.06,4.34,3.21,4.82l12.85,2.91c2.15,0.49,4.38-0.85,4.97-2.97l3.5-12.57c0.59-2.12,2.87-3.79,5.07-3.7
			l22.7-0.91c2.19-0.25,4.59,1.24,5.34,3.31l4.47,12.27c0.75,2.07,3.09,3.23,5.19,2.57l12.59-3.9c2.1-0.65,3.37-2.93,2.82-5.06
			l-3.26-12.65c-0.55-2.13,0.59-4.72,2.53-5.75l19.24-12.09c1.77-1.31,4.59-1.23,6.28,0.19l9.99,8.38c1.69,1.41,4.29,1.25,5.78-0.37
			l8.95-9.67c1.49-1.61,1.46-4.22-0.08-5.79l-9.15-9.33c-1.54-1.57-1.85-4.38-0.68-6.25l10.59-20.1c0.88-2.02,3.37-3.35,5.54-2.97
			l12.86,2.27c2.17,0.38,4.34-1.06,4.82-3.21l2.91-12.85c0.49-2.15-0.85-4.38-2.97-4.97l-12.57-3.5c-2.12-0.59-3.79-2.87-3.7-5.07
			l-0.91-22.7c-0.25-2.19,1.24-4.59,3.31-5.34L1080.39,1239.59z M984.09,1333.12c-37.77,11.71-77.89-9.42-89.6-47.19
			c-11.71-37.77,9.42-77.89,47.19-89.6c37.77-11.71,77.89,9.42,89.6,47.19C1043,1281.29,1021.87,1321.41,984.09,1333.12z"/>
	</g>
</g>
<circle class="st1" cx="1207.71" cy="1012.77" r="145.29"/>
<path class="st0" d="M1193.91,929.34c52.96,11.42,86.63,63.61,75.2,116.57c-11.42,52.96-63.61,86.63-116.57,75.2
	c-29.92-6.45-53.68-25.92-66.63-51.18"/>
<g>
	<g>
		<path class="st0" d="M1249.51,1032.53c2.2-0.11,4-1.99,4-4.19v-5.91c0-2.2-1.8-4.09-4-4.19l-5.83-0.28
			c-2.2-0.11-4.33-1.96-4.74-4.12l-3.13-11.78c-0.73-2.08,0.19-4.75,2.04-5.94l4.9-3.15c1.85-1.19,2.46-3.72,1.36-5.63l-2.96-5.12
			c-1.1-1.91-3.6-2.64-5.56-1.63l-5.19,2.67c-1.96,1.01-4.73,0.47-6.17-1.2l-8.62-8.62c-1.67-1.44-2.21-4.21-1.2-6.17l2.67-5.19
			c1.01-1.96,0.27-4.46-1.63-5.56l-5.12-2.96c-1.91-1.1-4.44-0.49-5.63,1.36l-3.15,4.9c-1.19,1.85-3.86,2.77-5.94,2.04l-11.78-3.13
			c-2.16-0.41-4.02-2.55-4.12-4.74l-0.28-5.83c-0.11-2.2-1.99-4-4.19-4h-5.91c-2.2,0-4.09,1.8-4.19,4l-0.28,5.83
			c-0.11,2.2-1.96,4.33-4.12,4.74l-11.78,3.13c-2.08,0.73-4.75-0.19-5.94-2.04l-3.15-4.9c-1.19-1.85-3.72-2.46-5.63-1.36l-5.12,2.96
			c-1.91,1.1-2.64,3.6-1.63,5.56l2.67,5.19c1.01,1.96,0.47,4.73-1.2,6.17l-8.62,8.62c-1.44,1.67-4.21,2.21-6.17,1.2l-5.19-2.67
			c-1.96-1.01-4.46-0.27-5.56,1.63l-2.96,5.12c-1.1,1.91-0.49,4.44,1.36,5.63l4.9,3.15c1.85,1.19,2.77,3.86,2.04,5.94l-3.13,11.78
			c-0.41,2.16-2.55,4.02-4.74,4.12l-5.83,0.28c-2.2,0.11-4,1.99-4,4.19v5.91c0,2.2,1.8,4.09,4,4.19l5.83,0.28
			c2.2,0.11,4.33,1.96,4.74,4.12l3.13,11.78c0.73,2.08-0.19,4.75-2.04,5.94l-4.9,3.15c-1.85,1.19-2.46,3.72-1.36,5.63l2.96,5.12
			c1.1,1.91,3.6,2.64,5.56,1.63l5.19-2.67c1.96-1.01,4.73-0.47,6.17,1.2l8.62,8.62c1.67,1.44,2.21,4.21,1.2,6.17l-2.67,5.19
			c-1.01,1.96-0.27,4.46,1.63,5.56l5.12,2.96c1.91,1.1,4.44,0.49,5.63-1.36l3.15-4.9c1.19-1.85,3.86-2.77,5.94-2.04l11.78,3.13
			c2.16,0.41,4.02,2.55,4.12,4.74l0.28,5.83c0.11,2.2,1.99,4,4.19,4h5.91c2.2,0,4.09-1.8,4.19-4l0.28-5.83
			c0.11-2.2,1.96-4.33,4.12-4.74l11.78-3.13c2.08-0.73,4.75,0.19,5.94,2.04l3.15,4.9c1.19,1.85,3.72,2.46,5.63,1.36l5.12-2.96
			c1.91-1.1,2.64-3.6,1.63-5.56l-2.67-5.19c-1.01-1.96-0.47-4.73,1.2-6.17l8.61-8.62c1.44-1.67,4.21-2.21,6.17-1.2l5.19,2.67
			c1.96,1.01,4.46,0.27,5.56-1.63l2.96-5.12c1.1-1.91,0.49-4.44-1.36-5.63l-4.9-3.15c-1.85-1.19-2.77-3.86-2.04-5.94l3.13-11.78
			c0.41-2.16,2.55-4.02,4.74-4.12L1249.51,1032.53z M1172.26,1072.41c-25.98,0-47.04-21.06-47.04-47.04
			c0-25.98,21.06-47.04,47.04-47.04c25.98,0,47.04,21.06,47.04,47.04C1219.3,1051.35,1198.24,1072.41,1172.26,1072.41z"/>
	</g>
</g>
<circle class="st1" cx="1063.22" cy="896.16" r="145.29"/>
<g>
	<g>
		<path class="st0" d="M839.18,150.63c2.2-0.11,4-1.99,4-4.19v-12.95c0-2.2-1.8-4.09-4-4.19l-12.82-0.62
			c-2.2-0.11-4.33-1.96-4.75-4.12l-5.77-21.64c-0.73-2.08,0.19-4.75,2.04-5.94l10.77-6.94c1.85-1.19,2.46-3.72,1.36-5.63
			l-6.48-11.22c-1.1-1.91-3.6-2.64-5.56-1.63l-11.41,5.87c-1.96,1.01-4.73,0.47-6.17-1.2l-15.83-15.83
			c-1.67-1.44-2.21-4.21-1.2-6.17l5.87-11.41c1.01-1.96,0.27-4.46-1.63-5.56l-11.22-6.48c-1.91-1.1-4.44-0.49-5.63,1.36l-6.94,10.78
			c-1.19,1.85-3.86,2.77-5.94,2.04l-21.64-5.77c-2.16-0.41-4.02-2.55-4.12-4.74l-0.62-12.82c-0.11-2.2-1.99-4-4.19-4h-12.95
			c-2.2,0-4.09,1.8-4.19,4l-0.62,12.82c-0.11,2.2-1.96,4.33-4.12,4.74l-21.63,5.77c-2.08,0.73-4.75-0.19-5.94-2.04l-6.94-10.78
			c-1.19-1.85-3.72-2.46-5.63-1.36l-11.22,6.48c-1.91,1.1-2.64,3.6-1.63,5.56l5.87,11.41c1.01,1.96,0.47,4.73-1.2,6.17l-15.83,15.83
			c-1.44,1.67-4.21,2.21-6.17,1.2l-11.41-5.87c-1.96-1.01-4.46-0.27-5.56,1.63l-6.48,11.22c-1.1,1.91-0.49,4.44,1.36,5.63
			l10.78,6.94c1.85,1.19,2.77,3.86,2.04,5.94l-5.77,21.64c-0.41,2.16-2.55,4.02-4.74,4.12l-12.82,0.62c-2.2,0.11-4,1.99-4,4.19
			v12.95c0,2.2,1.8,4.09,4,4.19l12.82,0.62c2.2,0.11,4.33,1.96,4.74,4.12l5.77,21.64c0.73,2.08-0.19,4.75-2.04,5.94l-10.78,6.94
			c-1.85,1.19-2.46,3.72-1.36,5.63l6.48,11.22c1.1,1.91,3.6,2.64,5.56,1.63l11.41-5.87c1.96-1.01,4.73-0.47,6.17,1.2l15.83,15.83
			c1.67,1.44,2.21,4.21,1.2,6.17l-5.87,11.42c-1.01,1.96-0.27,4.46,1.63,5.56l11.22,6.48c1.91,1.1,4.44,0.49,5.63-1.36l6.94-10.78
			c1.19-1.85,3.86-2.77,5.94-2.04l21.63,5.77c2.16,0.41,4.02,2.55,4.12,4.74l0.62,12.82c0.11,2.2,1.99,4,4.19,4h12.95
			c2.2,0,4.09-1.8,4.19-4l0.62-12.82c0.11-2.2,1.96-4.33,4.12-4.74l21.64-5.77c2.08-0.73,4.75,0.19,5.94,2.04l6.94,10.78
			c1.19,1.85,3.72,2.46,5.63,1.36l11.22-6.48c1.91-1.1,2.64-3.6,1.63-5.56l-5.87-11.42c-1.01-1.96-0.47-4.73,1.2-6.17l15.83-15.83
			c1.44-1.67,4.21-2.21,6.17-1.2l11.41,5.87c1.96,1.01,4.46,0.27,5.56-1.63l6.48-11.22c1.1-1.91,0.49-4.44-1.36-5.63l-10.78-6.94
			c-1.85-1.19-2.77-3.86-2.04-5.94l5.77-21.64c0.41-2.16,2.55-4.02,4.74-4.12L839.18,150.63z M720.84,210.8
			c-39.12,0-70.84-31.72-70.84-70.84c0-39.12,31.72-70.84,70.84-70.84c39.12,0,70.84,31.72,70.84,70.84"/>
	</g>
</g>
<circle class="st1" cx="879.46" cy="1185.64" r="145.29"/>
<circle class="st1" cx="880.48" cy="218.98" r="145.29"/>
<path class="st2" d="M636.49,977.58c-61.64,50.1-140.26,80.13-225.88,80.13c-193.98,0-351.24-157.26-351.24-351.24
	c0-190.1,154.11-344.22,344.22-344.22c186.3,0,337.33,151.03,337.33,337.33c0,182.58-148.01,330.58-330.58,330.58"/>
<path class="st3" d="M679.49,459.58c29.33,33.77,52.57,72.96,68.02,115.88c5.56,15.45,22.13,23.97,37.99,19.72l84.59-22.67
	c15-4.02,30.61,3.44,37.1,17.55c31.23,67.86,107.69,105.38,182.28,85.39c79.17-21.21,126.15-102.59,104.94-181.76
	c-20.15-75.21-97.46-119.84-172.67-99.69c-71.45,19.14-113.85,92.59-94.71,164.03c18.19,67.88,87.96,108.16,155.83,89.97
	c65.14-17.45,103.52-84.91,84.93-150c-15.98-55.95-71.49-92.03-128.78-81.84c-63.83,11.36-102.98,74.43-86.57,135.7"/>
<path class="st4" d="M746.19,825.44c-15.08,40.09-37.13,76.77-64.69,108.55c-10.91,12.59-10.27,31.45,1.51,43.23l61.63,61.63
	c11.02,11.02,12.25,28.31,3.26,41.04c-43.04,60.97-37.28,145.85,17.28,200.42c57.95,57.95,151.92,57.95,209.87,0
	c55.06-55.06,55.06-144.32,0-199.38c-52.3-52.3-137.11-52.3-189.41,0c-49.69,49.69-49.69,130.25,0,179.94
	c47.68,47.68,125.29,47.2,172.37-1.45c40.46-41.82,43.96-107.93,6.48-152.45c-41.75-49.6-115.95-51.97-160.8-7.12"/>
<path class="st5" d="M763.35,634.82c3.72,20.93,5.67,42.48,5.67,64.48c0,22.68-2.11,44.86-6.13,66.37
	c-3.04,16.26,7,32.1,22.98,36.38l84.36,22.6c15.06,4.03,24.76,18.39,23.35,33.91c-6.79,74.32,40.64,144.96,115.18,164.93
	c79.17,21.21,160.54-25.77,181.75-104.94c20.15-75.21-24.48-152.52-99.69-172.67c-71.45-19.14-144.89,23.26-164.03,94.71
	c-18.19,67.88,22.09,137.64,89.97,155.83c65.14,17.45,132.11-21.77,148.55-87.44c14.13-56.45-15.9-115.45-70.61-135.26
	c-60.96-22.08-126.4,12.97-142.82,74.24"/>
<path class="st6" d="M410.91,1087.57c-210.31,0-380.8-170.49-380.8-380.8c0-206.11,167.08-373.19,373.19-373.19
	c88.53,0,169.71,31.46,232.98,83.8c12.55,10.38,30.98,9.39,42.5-2.13l62.17-62.17c11.02-11.02,28.31-12.25,41.04-3.26
	c60.97,43.04,145.85,37.28,200.42-17.28c57.95-57.95,57.95-151.92,0-209.87c-55.06-55.06-144.32-55.06-199.38,0
	c-52.3,52.3-52.3,137.11,0,189.41c49.69,49.69,130.25,49.69,179.94,0c47.68-47.68,47.2-125.29-1.45-172.37
	c-41.82-40.46-107.93-43.96-152.45-6.48c-49.6,41.75-51.97,115.95-7.12,160.8"/>
<g>
	<path class="st7" d="M962.53,549.09c1.48,5.54-1.8,11.23-7.34,12.72c-5.54,1.48-11.23-1.8-12.72-7.34
		c-1.48-5.54,1.8-11.23,7.34-12.72C955.36,540.27,961.05,543.55,962.53,549.09z"/>
</g>
<g>
	<path class="st7" d="M689.52,456.89c1.48,5.54-1.8,11.23-7.34,12.72c-5.54,1.48-11.23-1.8-12.72-7.34
		c-1.48-5.54,1.8-11.23,7.34-12.72C682.35,448.06,688.04,451.35,689.52,456.89z"/>
</g>
<g>
	<path class="st8" d="M811.13,1107.19c-4.06,4.06-10.63,4.06-14.69,0c-4.06-4.06-4.06-10.63,0-14.69c4.06-4.06,10.63-4.06,14.69,0
		C815.19,1096.56,815.19,1103.14,811.13,1107.19z"/>
</g>
<g>
	<path class="st8" d="M753.53,832.78c-4.06,4.06-10.63,4.06-14.69,0c-4.06-4.06-4.06-10.63,0-14.69c4.06-4.06,10.63-4.06,14.69,0
		C757.59,822.15,757.59,828.73,753.53,832.78z"/>
</g>
<g>
	<path class="st9" d="M961.98,850.59c-1.48,5.54-7.18,8.83-12.72,7.34c-5.54-1.48-8.83-7.18-7.34-12.72
		c1.48-5.54,7.18-8.83,12.72-7.34C960.18,839.36,963.46,845.05,961.98,850.59z"/>
</g>
<g>
	<path class="st9" d="M773.39,637.51c-1.48,5.54-7.18,8.83-12.72,7.34c-5.54-1.48-8.83-7.18-7.34-12.72
		c1.48-5.54,7.18-8.83,12.72-7.34C771.59,626.28,774.88,631.97,773.39,637.51z"/>
</g>
<circle class="st10" cx="410.91" cy="1087.57" r="10.39"/>
<circle class="st11" cx="410.4" cy="1030.16" r="10.39"/>
<circle class="st11" cx="636.5" cy="977.58" r="10.39"/>
<g>
	<path class="st10" d="M809.29,286.57c4.06,4.06,4.06,10.63,0,14.69c-4.06,4.06-10.63,4.06-14.69,0c-4.06-4.06-4.06-10.63,0-14.69
		C798.66,282.52,805.23,282.52,809.29,286.57z"/>
</g>
<g>
	<path class="st9" d="M871.68,845.7c4.06,4.06,4.06,10.63,0,14.69c-4.06,4.06-10.63,4.06-14.69,0c-4.06-4.06-4.06-10.63,0-14.69
		C861.05,841.64,867.62,841.64,871.68,845.7z"/>
</g>
<g>
	<path class="st9" d="M953.4,1018.99c4.06,4.06,4.06,10.63,0,14.69c-4.06,4.06-10.63,4.06-14.69,0c-4.06-4.06-4.06-10.63,0-14.69
		C942.77,1014.94,949.34,1014.94,953.4,1018.99z"/>
</g>
<path class="st5" d="M864.33,853.04c0,0-12.49,109.75,81.72,173.3"/>
<g>
	<g>
		<path class="st12" d="M1093.49,193.75v12.02h-7.03v-34.12h13.31c2.56,0,4.82,0.47,6.76,1.41s3.44,2.27,4.49,4s1.57,3.69,1.57,5.89
			c0,3.34-1.14,5.98-3.43,7.91s-5.46,2.89-9.5,2.89H1093.49z M1093.49,188.05h6.28c1.86,0,3.28-0.44,4.25-1.31s1.46-2.12,1.46-3.75
			c0-1.67-0.49-3.02-1.48-4.05s-2.34-1.56-4.08-1.59h-6.45V188.05z"/>
		<path class="st12" d="M1131.22,186.76c-0.92-0.12-1.73-0.19-2.44-0.19c-2.56,0-4.24,0.87-5.04,2.6v16.59h-6.77v-25.36h6.4
			l0.19,3.02c1.36-2.33,3.24-3.49,5.65-3.49c0.75,0,1.45,0.1,2.11,0.3L1131.22,186.76z"/>
		<path class="st12" d="M1145.71,206.24c-3.72,0-6.75-1.14-9.08-3.42s-3.5-5.32-3.5-9.12v-0.66c0-2.55,0.49-4.82,1.48-6.83
			s2.38-3.55,4.18-4.64s3.86-1.63,6.18-1.63c3.47,0,6.2,1.09,8.19,3.28s2.99,5.29,2.99,9.3v2.77h-16.15
			c0.22,1.66,0.88,2.98,1.98,3.98s2.5,1.5,4.18,1.5c2.61,0,4.65-0.95,6.12-2.84l3.33,3.73c-1.02,1.44-2.39,2.56-4.12,3.36
			S1147.82,206.24,1145.71,206.24z M1144.93,185.4c-1.34,0-2.43,0.46-3.27,1.37s-1.37,2.21-1.61,3.91h9.42v-0.54
			c-0.03-1.51-0.44-2.67-1.22-3.5C1147.48,185.81,1146.37,185.4,1144.93,185.4z"/>
		<path class="st12" d="M1166.33,180.41l0.21,2.84c1.8-2.2,4.23-3.3,7.29-3.3c3.27,0,5.51,1.29,6.73,3.87
			c1.78-2.58,4.32-3.87,7.62-3.87c2.75,0,4.8,0.8,6.14,2.4s2.02,4.01,2.02,7.23v16.2h-6.8V189.6c0-1.44-0.28-2.49-0.84-3.15
			s-1.55-1-2.98-1c-2.03,0-3.44,0.97-4.22,2.91l0.02,17.41h-6.77v-16.15c0-1.47-0.29-2.53-0.87-3.19s-1.56-0.98-2.95-0.98
			c-1.92,0-3.31,0.8-4.17,2.39v17.93h-6.77v-25.36H1166.33z"/>
		<path class="st12" d="M1201.49,173.85c0-1.02,0.34-1.85,1.02-2.51s1.61-0.98,2.78-0.98c1.16,0,2.08,0.33,2.77,0.98
			s1.03,1.49,1.03,2.51c0,1.03-0.35,1.88-1.04,2.53s-1.61,0.98-2.75,0.98s-2.06-0.33-2.75-0.98S1201.49,174.88,1201.49,173.85z
			 M1208.68,205.77h-6.8v-25.36h6.8V205.77z"/>
		<path class="st12" d="M1229.45,203.19c-1.67,2.03-3.98,3.05-6.94,3.05c-2.72,0-4.79-0.78-6.22-2.34s-2.16-3.85-2.19-6.87v-16.62
			h6.77v16.4c0,2.64,1.2,3.97,3.61,3.97c2.3,0,3.88-0.8,4.73-2.39v-17.97h6.8v25.36h-6.38L1229.45,203.19z"/>
		<path class="st12" d="M1247.47,180.41l0.21,2.84c1.8-2.2,4.23-3.3,7.29-3.3c3.27,0,5.51,1.29,6.73,3.87
			c1.78-2.58,4.32-3.87,7.62-3.87c2.75,0,4.8,0.8,6.14,2.4s2.02,4.01,2.02,7.23v16.2h-6.8V189.6c0-1.44-0.28-2.49-0.84-3.15
			s-1.55-1-2.98-1c-2.03,0-3.44,0.97-4.22,2.91l0.02,17.41h-6.77v-16.15c0-1.47-0.29-2.53-0.87-3.19s-1.56-0.98-2.95-0.98
			c-1.92,0-3.31,0.8-4.17,2.39v17.93h-6.77v-25.36H1247.47z"/>
		<path class="st12" d="M1106.99,249.42h-13.5v13.95h-7.03v-34.12h22.22v5.7h-15.19v8.81h13.5V249.42z"/>
		<path class="st12" d="M1112.26,231.45c0-1.02,0.34-1.85,1.02-2.51s1.61-0.98,2.78-0.98c1.16,0,2.08,0.33,2.77,0.98
			s1.03,1.49,1.03,2.51c0,1.03-0.35,1.88-1.04,2.53s-1.61,0.98-2.75,0.98s-2.06-0.33-2.75-0.98S1112.26,232.48,1112.26,231.45z
			 M1119.46,263.37h-6.8v-25.36h6.8V263.37z"/>
		<path class="st12" d="M1131.27,238.01l0.21,2.93c1.81-2.27,4.24-3.4,7.29-3.4c2.69,0,4.69,0.79,6,2.37s1.98,3.94,2.02,7.08v16.38
			h-6.77v-16.22c0-1.44-0.31-2.48-0.94-3.13s-1.66-0.97-3.12-0.97c-1.91,0-3.34,0.81-4.29,2.44v17.88h-6.77v-25.36H1131.27z"/>
		<path class="st12" d="M1166.61,263.37c-0.31-0.61-0.54-1.37-0.68-2.27c-1.64,1.83-3.77,2.74-6.4,2.74c-2.48,0-4.54-0.72-6.18-2.16
			s-2.45-3.25-2.45-5.44c0-2.69,1-4.75,2.99-6.19s4.87-2.16,8.64-2.18h3.12v-1.45c0-1.17-0.3-2.11-0.9-2.81s-1.55-1.05-2.85-1.05
			c-1.14,0-2.04,0.27-2.68,0.82s-0.97,1.3-0.97,2.25h-6.77c0-1.47,0.45-2.83,1.36-4.08s2.19-2.23,3.84-2.94s3.52-1.07,5.58-1.07
			c3.12,0,5.61,0.79,7.44,2.36s2.75,3.78,2.75,6.62v10.99c0.02,2.41,0.35,4.23,1.01,5.46v0.4H1166.61z M1161.01,258.66
			c1,0,1.92-0.22,2.77-0.67s1.47-1.04,1.88-1.79v-4.36h-2.53c-3.39,0-5.2,1.17-5.41,3.52l-0.02,0.4c0,0.84,0.3,1.54,0.89,2.09
			S1159.98,258.66,1161.01,258.66z"/>
		<path class="st12" d="M1183.89,238.01l0.21,2.93c1.81-2.27,4.24-3.4,7.29-3.4c2.69,0,4.69,0.79,6,2.37s1.98,3.94,2.02,7.08v16.38
			h-6.77v-16.22c0-1.44-0.31-2.48-0.94-3.13s-1.66-0.97-3.12-0.97c-1.91,0-3.34,0.81-4.29,2.44v17.88h-6.77v-25.36H1183.89z"/>
		<path class="st12" d="M1215.08,258.38c1.25,0,2.27-0.34,3.05-1.03s1.19-1.6,1.22-2.74h6.35c-0.02,1.72-0.48,3.29-1.41,4.72
			s-2.18,2.54-3.79,3.33s-3.37,1.18-5.31,1.18c-3.62,0-6.48-1.15-8.58-3.46s-3.14-5.49-3.14-9.55v-0.45c0-3.91,1.04-7.02,3.12-9.35
			s4.93-3.49,8.55-3.49c3.17,0,5.71,0.9,7.63,2.71s2.89,4.21,2.92,7.21h-6.35c-0.03-1.32-0.44-2.39-1.22-3.22
			c-0.78-0.83-1.81-1.24-3.09-1.24c-1.58,0-2.77,0.58-3.57,1.73s-1.21,3.02-1.21,5.6v0.71c0,2.61,0.4,4.49,1.2,5.63
			C1212.25,257.81,1213.46,258.38,1215.08,258.38z"/>
		<path class="st12" d="M1229.52,231.45c0-1.02,0.34-1.85,1.02-2.51s1.61-0.98,2.78-0.98c1.16,0,2.08,0.33,2.77,0.98
			s1.03,1.49,1.03,2.51c0,1.03-0.35,1.88-1.04,2.53s-1.61,0.98-2.75,0.98s-2.06-0.33-2.75-0.98S1229.52,232.48,1229.52,231.45z
			 M1236.72,263.37h-6.8v-25.36h6.8V263.37z"/>
		<path class="st12" d="M1248.53,238.01l0.21,2.93c1.81-2.27,4.24-3.4,7.29-3.4c2.69,0,4.69,0.79,6,2.37s1.98,3.94,2.02,7.08v16.38
			h-6.77v-16.22c0-1.44-0.31-2.48-0.94-3.13s-1.66-0.97-3.12-0.97c-1.91,0-3.34,0.81-4.29,2.44v17.88h-6.77v-25.36H1248.53z"/>
		<path class="st12" d="M1268.19,250.5c0-3.89,0.93-7.02,2.78-9.4s4.35-3.56,7.49-3.56c2.78,0,4.95,0.95,6.49,2.86l0.28-2.39h6.14
			v24.52c0,2.22-0.5,4.15-1.51,5.79s-2.43,2.89-4.25,3.75s-3.97,1.29-6.42,1.29c-1.86,0-3.67-0.37-5.44-1.11s-3.1-1.7-4.01-2.87
			l3-4.12c1.69,1.89,3.73,2.84,6.14,2.84c1.8,0,3.2-0.48,4.2-1.44s1.5-2.32,1.5-4.09v-1.36c-1.56,1.77-3.62,2.65-6.16,2.65
			c-3.05,0-5.51-1.19-7.39-3.57s-2.82-5.54-2.82-9.48V250.5z M1274.97,251.01c0,2.3,0.46,4.1,1.38,5.41
			c0.92,1.31,2.19,1.96,3.8,1.96c2.06,0,3.54-0.77,4.43-2.32v-10.68c-0.91-1.55-2.37-2.32-4.38-2.32c-1.62,0-2.9,0.67-3.83,2
			S1274.97,248.36,1274.97,251.01z"/>
	</g>
</g>
<g>
	<g>
		<path class="st0" d="M646.01,1167.4c2.2-0.11,4-1.99,4-4.19v-3.15c0-2.2-1.8-4.09-4-4.19l-3.09-0.15
			c-2.2-0.11-4.33-1.96-4.74-4.12l-2.1-7.91c-0.73-2.08,0.19-4.75,2.04-5.94l2.59-1.67c1.85-1.19,2.46-3.72,1.36-5.63l-1.58-2.73
			c-1.1-1.91-3.6-2.64-5.56-1.63l-2.75,1.41c-1.96,1.01-4.73,0.47-6.17-1.2l-5.79-5.79c-1.67-1.44-2.21-4.21-1.2-6.17l1.41-2.75
			c1.01-1.96,0.27-4.46-1.64-5.56l-2.73-1.58c-1.91-1.1-4.44-0.49-5.63,1.36l-1.67,2.59c-1.19,1.85-3.86,2.77-5.94,2.04l-7.91-2.1
			c-2.16-0.41-4.02-2.55-4.12-4.74l-0.15-3.09c-0.11-2.2-1.99-4-4.19-4h-3.15c-2.2,0-4.09,1.8-4.19,4l-0.15,3.09
			c-0.11,2.2-1.96,4.33-4.12,4.74l-7.92,2.1c-2.08,0.73-4.75-0.19-5.94-2.04l-1.67-2.59c-1.19-1.85-3.72-2.46-5.63-1.36l-2.73,1.58
			c-1.91,1.1-2.64,3.6-1.63,5.56l1.41,2.75c1.01,1.96,0.47,4.73-1.2,6.17l-5.79,5.79c-1.44,1.67-4.21,2.21-6.17,1.2l-2.75-1.41
			c-1.96-1.01-4.46-0.27-5.56,1.64l-1.58,2.73c-1.1,1.91-0.49,4.44,1.36,5.63l2.59,1.67c1.85,1.19,2.77,3.86,2.04,5.94l-2.1,7.92
			c-0.41,2.16-2.55,4.02-4.74,4.12l-3.09,0.15c-2.2,0.11-4,1.99-4,4.19v3.15c0,2.2,1.8,4.09,4,4.19l3.09,0.15
			c2.2,0.11,4.33,1.96,4.74,4.12l2.1,7.91c0.73,2.08-0.19,4.75-2.04,5.94l-2.59,1.67c-1.85,1.19-2.46,3.72-1.36,5.63l1.58,2.73
			c1.1,1.91,3.6,2.64,5.56,1.63l2.75-1.41c1.96-1.01,4.73-0.47,6.17,1.2l5.79,5.79c1.67,1.44,2.21,4.21,1.2,6.17l-1.41,2.75
			c-1.01,1.96-0.27,4.46,1.63,5.56l2.73,1.58c1.91,1.1,4.44,0.49,5.63-1.36l1.67-2.59c1.19-1.85,3.86-2.77,5.94-2.04l7.92,2.1
			c2.16,0.41,4.02,2.55,4.12,4.74l0.15,3.09c0.11,2.2,1.99,4,4.19,4h3.15c2.2,0,4.09-1.8,4.19-4l0.15-3.09
			c0.11-2.2,1.96-4.33,4.12-4.74l7.91-2.1c2.08-0.73,4.75,0.19,5.94,2.04l1.67,2.59c1.19,1.85,3.72,2.46,5.63,1.36l2.73-1.58
			c1.91-1.1,2.64-3.6,1.64-5.56l-1.41-2.75c-1.01-1.96-0.47-4.73,1.2-6.17l5.79-5.79c1.44-1.67,4.21-2.21,6.17-1.2l2.75,1.41
			c1.96,1.01,4.46,0.27,5.56-1.63l1.58-2.73c1.1-1.91,0.49-4.44-1.36-5.63l-2.59-1.67c-1.85-1.19-2.77-3.86-2.04-5.94l2.1-7.91
			c0.41-2.16,2.55-4.02,4.74-4.12L646.01,1167.4z"/>
	</g>
</g>
<circle class="st0" cx="584.88" cy="1160.7" r="25.06"/>
<g>
	
		<ellipse transform="matrix(0.9999 -0.0125 0.0125 0.9999 -5.4495 10.795)" class="st0" cx="861.02" cy="441.43" rx="24.02" ry="24.01"/>
	<line class="st0" x1="861.02" y1="426.57" x2="861.02" y2="456.31"/>
	<line class="st0" x1="846.15" y1="441.44" x2="875.9" y2="441.44"/>
</g>
<path class="st13" d="M1080.75,1068.83c0.61-2.85,3.42-4.66,6.27-4.05c2.85,0.61,4.66,3.42,4.05,6.27
	c-0.61,2.85-3.42,4.66-6.27,4.05C1081.94,1074.49,1080.13,1071.68,1080.75,1068.83z"/>
<g>
	<g>
		<path class="st0" d="M571.08,233.44c2.2-0.11,4-1.99,4-4.19v-1.71c0-2.2-1.8-4.09-4-4.19l-1.66-0.08
			c-2.2-0.11-4.33-1.96-4.74-4.12l-1.56-5.9c-0.73-2.08,0.19-4.75,2.04-5.94l1.39-0.89c1.85-1.19,2.46-3.72,1.36-5.63l-0.86-1.48
			c-1.1-1.91-3.6-2.64-5.56-1.63l-1.47,0.76c-1.96,1.01-4.73,0.47-6.17-1.2l-4.31-4.31c-1.67-1.44-2.21-4.21-1.2-6.17l0.76-1.47
			c1.01-1.96,0.27-4.46-1.63-5.56l-1.48-0.86c-1.91-1.1-4.44-0.49-5.63,1.36l-0.89,1.39c-1.19,1.85-3.86,2.77-5.94,2.04l-5.9-1.56
			c-2.16-0.41-4.02-2.55-4.12-4.74l-0.08-1.65c-0.11-2.2-1.99-4-4.19-4h-1.71c-2.2,0-4.09,1.8-4.19,4l-0.08,1.65
			c-0.11,2.2-1.96,4.33-4.12,4.74l-5.9,1.56c-2.08,0.73-4.75-0.19-5.94-2.04l-0.89-1.39c-1.19-1.85-3.72-2.46-5.63-1.36l-1.48,0.86
			c-1.91,1.1-2.64,3.6-1.63,5.56l0.76,1.47c1.01,1.96,0.47,4.73-1.2,6.17l-4.31,4.31c-1.44,1.67-4.21,2.21-6.17,1.2l-1.47-0.76
			c-1.96-1.01-4.46-0.27-5.56,1.64l-0.86,1.48c-1.1,1.91-0.49,4.44,1.36,5.63l1.39,0.89c1.85,1.19,2.77,3.86,2.04,5.94l-1.56,5.9
			c-0.41,2.16-2.55,4.02-4.74,4.12l-1.66,0.08c-2.2,0.11-4,1.99-4,4.19v1.71c0,2.2,1.8,4.09,4,4.19l1.66,0.08
			c2.2,0.11,4.33,1.96,4.74,4.12l1.56,5.9c0.73,2.08-0.19,4.75-2.04,5.94l-1.39,0.89c-1.85,1.19-2.46,3.72-1.36,5.63l0.86,1.48
			c1.1,1.91,3.6,2.64,5.56,1.63l1.47-0.76c1.96-1.01,4.73-0.47,6.17,1.2l4.31,4.31c1.67,1.44,2.21,4.21,1.2,6.17l-0.76,1.47
			c-1.01,1.96-0.27,4.46,1.63,5.56l1.48,0.86c1.91,1.1,4.44,0.49,5.63-1.36l0.89-1.39c1.19-1.85,3.86-2.77,5.94-2.04l5.9,1.56
			c2.16,0.41,4.02,2.55,4.12,4.74l0.08,1.66c0.11,2.2,1.99,4,4.19,4h1.71c2.2,0,4.09-1.8,4.19-4l0.08-1.66
			c0.11-2.2,1.96-4.33,4.12-4.74l5.9-1.56c2.08-0.73,4.75,0.19,5.94,2.04l0.89,1.39c1.19,1.85,3.72,2.46,5.63,1.36l1.48-0.86
			c1.91-1.1,2.64-3.6,1.64-5.56l-0.76-1.47c-1.01-1.96-0.47-4.73,1.2-6.17l4.31-4.31c1.44-1.67,4.21-2.21,6.17-1.2l1.48,0.76
			c1.96,1.01,4.46,0.27,5.56-1.63l0.86-1.48c1.1-1.91,0.49-4.44-1.36-5.63l-1.39-0.89c-1.85-1.19-2.77-3.86-2.04-5.94l1.56-5.9
			c0.41-2.16,2.55-4.02,4.74-4.12L571.08,233.44z"/>
	</g>
</g>
<circle class="st0" cx="518.37" cy="227.59" r="21.82"/>
<g>
	<g>
		<path class="st0" d="M1293.89,737.65c2.2-0.11,4-1.99,4-4.19v-1.71c0-2.2-1.8-4.09-4-4.19l-1.66-0.08
			c-2.2-0.11-4.33-1.96-4.74-4.12l-1.56-5.9c-0.73-2.08,0.19-4.75,2.04-5.94l1.39-0.89c1.85-1.19,2.46-3.72,1.36-5.63l-0.86-1.48
			c-1.1-1.91-3.6-2.64-5.56-1.63l-1.47,0.76c-1.96,1.01-4.73,0.47-6.17-1.2l-4.31-4.31c-1.67-1.44-2.21-4.21-1.2-6.17l0.76-1.47
			c1.01-1.96,0.27-4.46-1.64-5.56l-1.48-0.86c-1.91-1.1-4.44-0.49-5.63,1.36l-0.89,1.39c-1.19,1.85-3.86,2.77-5.94,2.04l-5.9-1.56
			c-2.16-0.41-4.02-2.55-4.12-4.74l-0.08-1.65c-0.11-2.2-1.99-4-4.19-4h-1.71c-2.2,0-4.09,1.8-4.19,4l-0.08,1.65
			c-0.11,2.2-1.96,4.33-4.12,4.74l-5.9,1.56c-2.08,0.73-4.75-0.19-5.94-2.04l-0.89-1.39c-1.19-1.85-3.72-2.46-5.63-1.36l-1.48,0.86
			c-1.91,1.1-2.64,3.6-1.63,5.56l0.76,1.47c1.01,1.96,0.47,4.73-1.2,6.17l-4.31,4.31c-1.44,1.67-4.21,2.21-6.17,1.2l-1.47-0.76
			c-1.96-1.01-4.46-0.27-5.56,1.64l-0.86,1.48c-1.1,1.91-0.49,4.44,1.36,5.63l1.39,0.89c1.85,1.19,2.77,3.86,2.04,5.94l-1.56,5.9
			c-0.41,2.16-2.55,4.02-4.74,4.12l-1.66,0.08c-2.2,0.11-4,1.99-4,4.19v1.71c0,2.2,1.8,4.09,4,4.19l1.66,0.08
			c2.2,0.11,4.33,1.96,4.74,4.12l1.56,5.9c0.73,2.08-0.19,4.75-2.04,5.94l-1.39,0.89c-1.85,1.19-2.46,3.72-1.36,5.63l0.86,1.48
			c1.1,1.91,3.6,2.64,5.56,1.63l1.47-0.76c1.96-1.01,4.73-0.47,6.17,1.2l4.31,4.31c1.67,1.44,2.21,4.21,1.2,6.17l-0.76,1.47
			c-1.01,1.96-0.27,4.46,1.63,5.56l1.48,0.86c1.91,1.1,4.44,0.49,5.63-1.36l0.89-1.39c1.19-1.85,3.86-2.77,5.94-2.04l5.9,1.56
			c2.16,0.41,4.02,2.55,4.12,4.74l0.08,1.66c0.11,2.2,1.99,4,4.19,4h1.71c2.2,0,4.09-1.8,4.19-4l0.08-1.66
			c0.11-2.2,1.96-4.33,4.12-4.74l5.9-1.56c2.08-0.73,4.75,0.19,5.94,2.04l0.89,1.39c1.19,1.85,3.72,2.46,5.63,1.36l1.48-0.86
			c1.91-1.1,2.64-3.6,1.64-5.56l-0.76-1.47c-1.01-1.96-0.47-4.73,1.2-6.17l4.31-4.31c1.44-1.67,4.21-2.21,6.17-1.2l1.48,0.76
			c1.96,1.01,4.46,0.27,5.56-1.63l0.86-1.48c1.1-1.91,0.49-4.44-1.36-5.63l-1.39-0.89c-1.85-1.19-2.77-3.86-2.04-5.94l1.56-5.9
			c0.41-2.16,2.55-4.02,4.74-4.12L1293.89,737.65z"/>
	</g>
</g>
<circle class="st0" cx="1241.18" cy="731.8" r="21.82"/>
<g>
	<g>
		<path class="st12" d="M1281.42,532.05v12.02h-7.03v-34.13h13.31c2.56,0,4.82,0.47,6.76,1.41c1.95,0.94,3.44,2.27,4.49,4
			s1.57,3.69,1.57,5.89c0,3.34-1.14,5.98-3.43,7.91s-5.46,2.89-9.5,2.89H1281.42z M1281.42,526.35h6.28c1.86,0,3.28-0.44,4.25-1.31
			s1.46-2.12,1.46-3.75c0-1.67-0.49-3.02-1.48-4.05s-2.34-1.56-4.08-1.59h-6.45V526.35z"/>
		<path class="st12" d="M1319.34,544.07c-0.31-0.61-0.54-1.37-0.68-2.27c-1.64,1.83-3.77,2.74-6.4,2.74c-2.48,0-4.54-0.72-6.18-2.16
			s-2.45-3.25-2.45-5.44c0-2.69,1-4.75,2.99-6.19s4.87-2.16,8.64-2.18h3.12v-1.45c0-1.17-0.3-2.11-0.9-2.81s-1.55-1.05-2.85-1.05
			c-1.14,0-2.04,0.27-2.68,0.82s-0.97,1.3-0.97,2.25h-6.77c0-1.47,0.45-2.83,1.36-4.08s2.19-2.23,3.84-2.94s3.52-1.07,5.58-1.07
			c3.12,0,5.61,0.79,7.44,2.36s2.75,3.78,2.75,6.62v10.99c0.02,2.41,0.35,4.23,1.01,5.46v0.4H1319.34z M1313.74,539.36
			c1,0,1.92-0.22,2.77-0.67s1.47-1.04,1.88-1.79v-4.36h-2.53c-3.39,0-5.2,1.17-5.41,3.52l-0.02,0.4c0,0.84,0.3,1.54,0.89,2.09
			S1312.71,539.36,1313.74,539.36z"/>
		<path class="st12" d="M1339.5,534.48l4.69-15.77h7.27l-10.2,29.3l-0.56,1.34c-1.52,3.31-4.02,4.97-7.5,4.97
			c-0.98,0-1.98-0.15-3-0.45v-5.13l1.03,0.02c1.28,0,2.24-0.2,2.87-0.59s1.13-1.04,1.49-1.95l0.8-2.09l-8.88-25.43h7.29
			L1339.5,534.48z"/>
		<path class="st12" d="M1360.47,518.71l0.21,2.84c1.8-2.2,4.23-3.3,7.29-3.3c3.27,0,5.51,1.29,6.73,3.87
			c1.78-2.58,4.32-3.87,7.62-3.87c2.75,0,4.8,0.8,6.14,2.4s2.02,4.01,2.02,7.23v16.2h-6.8V527.9c0-1.44-0.28-2.49-0.84-3.15
			s-1.55-1-2.98-1c-2.03,0-3.44,0.97-4.22,2.91l0.02,17.41h-6.77v-16.15c0-1.47-0.29-2.53-0.87-3.19s-1.56-0.98-2.95-0.98
			c-1.92,0-3.31,0.8-4.17,2.39v17.93h-6.77v-25.36H1360.47z"/>
		<path class="st12" d="M1407.35,544.54c-3.72,0-6.75-1.14-9.08-3.42s-3.5-5.32-3.5-9.12v-0.66c0-2.55,0.49-4.82,1.48-6.83
			s2.38-3.55,4.18-4.64s3.86-1.63,6.18-1.63c3.47,0,6.2,1.09,8.19,3.28s2.99,5.29,2.99,9.3v2.77h-16.15
			c0.22,1.66,0.88,2.98,1.98,3.98s2.5,1.5,4.18,1.5c2.61,0,4.65-0.95,6.12-2.84l3.33,3.73c-1.02,1.44-2.39,2.56-4.12,3.36
			S1409.46,544.54,1407.35,544.54z M1406.58,523.7c-1.34,0-2.43,0.46-3.27,1.37s-1.37,2.21-1.61,3.91h9.42v-0.54
			c-0.03-1.51-0.44-2.67-1.22-3.5C1409.12,524.12,1408.01,523.7,1406.58,523.7z"/>
		<path class="st12" d="M1427.86,518.71l0.21,2.93c1.81-2.27,4.24-3.4,7.29-3.4c2.69,0,4.69,0.79,6,2.37s1.98,3.94,2.02,7.08v16.38
			h-6.77v-16.22c0-1.44-0.31-2.48-0.94-3.13s-1.66-0.97-3.12-0.97c-1.91,0-3.34,0.81-4.29,2.44v17.88h-6.77v-25.36H1427.86z"/>
		<path class="st12" d="M1456.61,512.48v6.23h4.34v4.97h-4.34v12.66c0,0.94,0.18,1.61,0.54,2.02s1.05,0.61,2.06,0.61
			c0.75,0,1.41-0.05,1.99-0.16v5.13c-1.33,0.41-2.7,0.61-4.1,0.61c-4.75,0-7.17-2.4-7.27-7.2v-13.66h-3.7v-4.97h3.7v-6.23H1456.61z"
			/>
		<path class="st12" d="M1478.46,537.06c0-0.83-0.41-1.48-1.23-1.96s-2.14-0.9-3.95-1.28c-6.03-1.27-9.05-3.83-9.05-7.69
			c0-2.25,0.93-4.13,2.8-5.64s4.31-2.26,7.32-2.26c3.22,0,5.79,0.76,7.72,2.27s2.89,3.48,2.89,5.91h-6.77c0-0.97-0.31-1.77-0.94-2.4
			s-1.6-0.95-2.93-0.95c-1.14,0-2.02,0.26-2.65,0.77s-0.94,1.17-0.94,1.97c0,0.75,0.36,1.36,1.07,1.82s1.91,0.86,3.6,1.2
			s3.11,0.71,4.27,1.14c3.58,1.31,5.37,3.59,5.37,6.82c0,2.31-0.99,4.18-2.98,5.61s-4.55,2.14-7.69,2.14
			c-2.12,0-4.01-0.38-5.66-1.14s-2.94-1.8-3.88-3.12s-1.41-2.75-1.41-4.28h6.42c0.06,1.2,0.51,2.12,1.34,2.77s1.94,0.96,3.33,0.96
			c1.3,0,2.28-0.25,2.94-0.74S1478.46,537.86,1478.46,537.06z"/>
	</g>
</g>
<g>
	<g>
		<path class="st12" d="M1271.02,852.06c-0.27,3.67-1.62,6.56-4.07,8.67s-5.67,3.16-9.67,3.16c-4.38,0-7.82-1.47-10.32-4.42
			s-3.76-6.99-3.76-12.13v-2.09c0-3.28,0.58-6.17,1.73-8.67s2.81-4.42,4.96-5.75s4.64-2,7.49-2c3.94,0,7.11,1.05,9.52,3.16
			s3.8,5.07,4.17,8.88h-7.03c-0.17-2.2-0.79-3.8-1.84-4.79s-2.66-1.49-4.82-1.49c-2.34,0-4.1,0.84-5.26,2.52s-1.76,4.29-1.79,7.82
			v2.58c0,3.69,0.56,6.38,1.68,8.09s2.88,2.55,5.29,2.55c2.17,0,3.79-0.5,4.86-1.49s1.68-2.53,1.84-4.61H1271.02z"/>
		<path class="st12" d="M1274.13,850.51c0-2.52,0.48-4.76,1.45-6.73s2.36-3.49,4.18-4.57s3.93-1.62,6.34-1.62
			c3.42,0,6.21,1.05,8.38,3.14s3.37,4.94,3.62,8.53l0.05,1.73c0,3.89-1.09,7.01-3.26,9.36s-5.09,3.53-8.74,3.53
			s-6.57-1.17-8.75-3.52s-3.27-5.53-3.27-9.56V850.51z M1280.91,850.99c0,2.41,0.45,4.25,1.36,5.53s2.2,1.91,3.89,1.91
			c1.64,0,2.92-0.63,3.84-1.89s1.38-3.27,1.38-6.04c0-2.36-0.46-4.19-1.38-5.49s-2.22-1.95-3.89-1.95c-1.66,0-2.94,0.64-3.84,1.94
			S1280.91,848.29,1280.91,850.99z"/>
		<path class="st12" d="M1308.68,838.07l0.21,2.84c1.8-2.2,4.23-3.3,7.29-3.3c3.27,0,5.51,1.29,6.73,3.87
			c1.78-2.58,4.32-3.87,7.62-3.87c2.75,0,4.8,0.8,6.14,2.4s2.02,4.01,2.02,7.23v16.2h-6.8v-16.17c0-1.44-0.28-2.49-0.84-3.15
			s-1.55-1-2.98-1c-2.03,0-3.44,0.97-4.22,2.91l0.02,17.41h-6.77v-16.15c0-1.47-0.29-2.53-0.87-3.19s-1.56-0.98-2.95-0.98
			c-1.92,0-3.31,0.8-4.17,2.39v17.93h-6.77v-25.36H1308.68z"/>
		<path class="st12" d="M1366.71,850.98c0,3.91-0.89,7.04-2.66,9.39s-4.17,3.53-7.18,3.53c-2.56,0-4.63-0.89-6.21-2.67v11.95h-6.77
			v-35.11h6.28l0.23,2.48c1.64-1.97,3.78-2.95,6.42-2.95c3.12,0,5.55,1.16,7.29,3.47s2.6,5.5,2.6,9.56V850.98z M1359.94,850.49
			c0-2.36-0.42-4.18-1.25-5.46s-2.05-1.92-3.64-1.92c-2.12,0-3.59,0.81-4.38,2.44v10.38c0.83,1.67,2.3,2.51,4.43,2.51
			C1358.32,858.44,1359.94,855.79,1359.94,850.49z"/>
		<path class="st12" d="M1385.16,844.42c-0.92-0.12-1.73-0.19-2.44-0.19c-2.56,0-4.24,0.87-5.04,2.6v16.59h-6.77v-25.36h6.4
			l0.19,3.02c1.36-2.33,3.24-3.49,5.65-3.49c0.75,0,1.45,0.1,2.11,0.3L1385.16,844.42z"/>
		<path class="st12" d="M1399.64,863.9c-3.72,0-6.75-1.14-9.08-3.42s-3.5-5.32-3.5-9.12v-0.66c0-2.55,0.49-4.82,1.48-6.83
			s2.38-3.55,4.18-4.64s3.86-1.63,6.18-1.63c3.47,0,6.2,1.09,8.19,3.28s2.99,5.29,2.99,9.3v2.77h-16.15
			c0.22,1.66,0.88,2.98,1.98,3.98s2.5,1.5,4.18,1.5c2.61,0,4.65-0.95,6.12-2.84l3.33,3.73c-1.02,1.44-2.39,2.56-4.12,3.36
			S1401.75,863.9,1399.64,863.9z M1398.87,843.06c-1.34,0-2.43,0.46-3.27,1.37s-1.37,2.21-1.61,3.91h9.42v-0.54
			c-0.03-1.51-0.44-2.67-1.22-3.5C1401.41,843.47,1400.3,843.06,1398.87,843.06z"/>
		<path class="st12" d="M1420.52,840.83c1.8-2.16,4.05-3.23,6.77-3.23c5.5,0,8.29,3.2,8.37,9.59v16.24h-6.77v-16.05
			c0-1.45-0.31-2.53-0.94-3.22s-1.66-1.04-3.12-1.04c-1.98,0-3.42,0.77-4.31,2.3v18.02h-6.77v-36h6.77V840.83z"/>
		<path class="st12" d="M1452.45,863.9c-3.72,0-6.75-1.14-9.08-3.42s-3.5-5.32-3.5-9.12v-0.66c0-2.55,0.49-4.82,1.48-6.83
			s2.38-3.55,4.18-4.64s3.86-1.63,6.18-1.63c3.47,0,6.2,1.09,8.19,3.28s2.99,5.29,2.99,9.3v2.77h-16.15
			c0.22,1.66,0.88,2.98,1.98,3.98s2.5,1.5,4.18,1.5c2.61,0,4.65-0.95,6.12-2.84l3.33,3.73c-1.02,1.44-2.39,2.56-4.12,3.36
			S1454.55,863.9,1452.45,863.9z M1451.67,843.06c-1.34,0-2.43,0.46-3.27,1.37s-1.37,2.21-1.61,3.91h9.42v-0.54
			c-0.03-1.51-0.44-2.67-1.22-3.5C1454.22,843.47,1453.11,843.06,1451.67,843.06z"/>
		<path class="st12" d="M1472.95,838.07l0.21,2.93c1.81-2.27,4.24-3.4,7.29-3.4c2.69,0,4.69,0.79,6,2.37s1.98,3.94,2.02,7.08v16.38
			h-6.77v-16.22c0-1.44-0.31-2.48-0.94-3.13s-1.66-0.97-3.12-0.97c-1.91,0-3.34,0.81-4.29,2.44v17.88h-6.77v-25.36H1472.95z"/>
		<path class="st12" d="M1507.34,856.42c0-0.83-0.41-1.48-1.23-1.96s-2.14-0.9-3.95-1.28c-6.03-1.27-9.05-3.83-9.05-7.69
			c0-2.25,0.93-4.13,2.8-5.64s4.31-2.26,7.32-2.26c3.22,0,5.79,0.76,7.72,2.27s2.89,3.48,2.89,5.91h-6.77c0-0.97-0.31-1.77-0.94-2.4
			s-1.6-0.95-2.93-0.95c-1.14,0-2.02,0.26-2.65,0.77s-0.94,1.17-0.94,1.97c0,0.75,0.36,1.36,1.07,1.82s1.91,0.86,3.6,1.2
			s3.11,0.71,4.27,1.14c3.58,1.31,5.37,3.59,5.37,6.82c0,2.31-0.99,4.18-2.98,5.61s-4.55,2.14-7.69,2.14
			c-2.12,0-4.01-0.38-5.66-1.14s-2.94-1.8-3.88-3.12s-1.41-2.75-1.41-4.28h6.42c0.06,1.2,0.51,2.12,1.34,2.77s1.94,0.96,3.33,0.96
			c1.3,0,2.28-0.25,2.94-0.74S1507.34,857.22,1507.34,856.42z"/>
		<path class="st12" d="M1518.23,831.51c0-1.02,0.34-1.85,1.02-2.51s1.61-0.98,2.78-0.98c1.16,0,2.08,0.33,2.77,0.98
			s1.03,1.49,1.03,2.51c0,1.03-0.35,1.88-1.04,2.53s-1.61,0.98-2.75,0.98s-2.06-0.33-2.75-0.98S1518.23,832.54,1518.23,831.51z
			 M1525.43,863.43h-6.8v-25.36h6.8V863.43z"/>
		<path class="st12" d="M1540.5,855.15l4.71-17.09h7.08l-8.55,25.36h-6.47l-8.55-25.36h7.08L1540.5,855.15z"/>
		<path class="st12" d="M1566.63,863.9c-3.72,0-6.75-1.14-9.08-3.42s-3.5-5.32-3.5-9.12v-0.66c0-2.55,0.49-4.82,1.48-6.83
			s2.38-3.55,4.18-4.64s3.86-1.63,6.18-1.63c3.47,0,6.2,1.09,8.19,3.28s2.99,5.29,2.99,9.3v2.77h-16.15
			c0.22,1.66,0.88,2.98,1.98,3.98s2.5,1.5,4.18,1.5c2.61,0,4.65-0.95,6.12-2.84l3.33,3.73c-1.02,1.44-2.39,2.56-4.12,3.36
			S1568.74,863.9,1566.63,863.9z M1565.86,843.06c-1.34,0-2.43,0.46-3.27,1.37s-1.37,2.21-1.61,3.91h9.42v-0.54
			c-0.03-1.51-0.44-2.67-1.22-3.5C1568.41,843.47,1567.3,843.06,1565.86,843.06z"/>
		<path class="st12" d="M1256.86,908.53h-5.6v12.49h-7.03V886.9h12.68c4.03,0,7.14,0.9,9.33,2.7s3.28,4.34,3.28,7.62
			c0,2.33-0.5,4.27-1.51,5.82s-2.54,2.79-4.58,3.71l7.38,13.95v0.33h-7.55L1256.86,908.53z M1251.26,902.84h5.67
			c1.77,0,3.13-0.45,4.1-1.35s1.45-2.14,1.45-3.71c0-1.61-0.46-2.88-1.37-3.8s-2.32-1.38-4.21-1.38h-5.65V902.84z"/>
		<path class="st12" d="M1286.09,921.5c-3.72,0-6.75-1.14-9.08-3.42s-3.5-5.32-3.5-9.12v-0.66c0-2.55,0.49-4.82,1.48-6.83
			s2.38-3.55,4.18-4.64s3.86-1.63,6.18-1.63c3.47,0,6.2,1.09,8.19,3.28s2.99,5.29,2.99,9.3v2.77h-16.15
			c0.22,1.66,0.88,2.98,1.98,3.98s2.5,1.5,4.18,1.5c2.61,0,4.65-0.95,6.12-2.84l3.33,3.73c-1.02,1.44-2.39,2.56-4.12,3.36
			S1288.2,921.5,1286.09,921.5z M1285.31,900.66c-1.34,0-2.43,0.46-3.27,1.37s-1.37,2.21-1.61,3.91h9.42v-0.54
			c-0.03-1.51-0.44-2.67-1.22-3.5S1286.75,900.66,1285.31,900.66z"/>
		<path class="st12" d="M1323.19,908.58c0,3.91-0.89,7.04-2.66,9.39s-4.17,3.53-7.18,3.53c-2.56,0-4.63-0.89-6.21-2.67v11.95h-6.77
			v-35.11h6.28l0.23,2.48c1.64-1.97,3.78-2.95,6.42-2.95c3.12,0,5.55,1.16,7.29,3.47s2.6,5.5,2.6,9.56V908.58z M1316.41,908.09
			c0-2.36-0.42-4.18-1.25-5.46s-2.05-1.92-3.64-1.92c-2.12,0-3.59,0.81-4.38,2.44v10.38c0.83,1.67,2.3,2.51,4.43,2.51
			C1314.8,916.03,1316.41,913.39,1316.41,908.09z"/>
		<path class="st12" d="M1326.33,908.11c0-2.52,0.48-4.76,1.45-6.73s2.36-3.49,4.18-4.57s3.93-1.62,6.34-1.62
			c3.42,0,6.21,1.05,8.38,3.14s3.37,4.94,3.62,8.53l0.05,1.73c0,3.89-1.09,7.01-3.26,9.36s-5.09,3.53-8.74,3.53
			s-6.57-1.17-8.75-3.52s-3.27-5.53-3.27-9.56V908.11z M1333.1,908.59c0,2.41,0.45,4.25,1.36,5.53s2.2,1.91,3.89,1.91
			c1.64,0,2.92-0.63,3.84-1.89s1.38-3.27,1.38-6.04c0-2.36-0.46-4.19-1.38-5.49s-2.22-1.95-3.89-1.95c-1.66,0-2.94,0.65-3.84,1.94
			S1333.1,905.89,1333.1,908.59z"/>
		<path class="st12" d="M1368.77,902.02c-0.92-0.12-1.73-0.19-2.44-0.19c-2.56,0-4.24,0.87-5.04,2.6v16.59h-6.77v-25.36h6.4
			l0.19,3.02c1.36-2.33,3.24-3.49,5.65-3.49c0.75,0,1.45,0.1,2.11,0.3L1368.77,902.02z"/>
		<path class="st12" d="M1381.31,889.43v6.23h4.34v4.97h-4.34v12.66c0,0.94,0.18,1.61,0.54,2.02s1.05,0.61,2.06,0.61
			c0.75,0,1.41-0.05,1.99-0.16v5.13c-1.33,0.41-2.7,0.61-4.1,0.61c-4.75,0-7.17-2.4-7.27-7.2v-13.66h-3.7v-4.97h3.7v-6.23H1381.31z"
			/>
		<path class="st12" d="M1389.38,889.1c0-1.02,0.34-1.85,1.02-2.51s1.61-0.98,2.78-0.98c1.16,0,2.08,0.33,2.77,0.98
			s1.03,1.49,1.03,2.51c0,1.03-0.35,1.88-1.04,2.53s-1.61,0.98-2.75,0.98s-2.06-0.33-2.75-0.98S1389.38,890.14,1389.38,889.1z
			 M1396.57,921.03h-6.8v-25.36h6.8V921.03z"/>
		<path class="st12" d="M1408.38,895.67l0.21,2.93c1.81-2.27,4.24-3.4,7.29-3.4c2.69,0,4.69,0.79,6,2.37s1.98,3.94,2.02,7.08v16.38
			h-6.77v-16.22c0-1.44-0.31-2.48-0.94-3.13s-1.66-0.97-3.12-0.97c-1.91,0-3.34,0.81-4.29,2.44v17.88h-6.77v-25.36H1408.38z"/>
		<path class="st12" d="M1428.05,908.16c0-3.89,0.93-7.02,2.78-9.4s4.35-3.56,7.49-3.56c2.78,0,4.95,0.95,6.49,2.86l0.28-2.39h6.14
			v24.52c0,2.22-0.5,4.15-1.51,5.79s-2.43,2.89-4.25,3.75s-3.97,1.29-6.42,1.29c-1.86,0-3.67-0.37-5.44-1.11s-3.1-1.7-4.01-2.87
			l3-4.12c1.69,1.89,3.73,2.84,6.14,2.84c1.8,0,3.2-0.48,4.2-1.44s1.5-2.32,1.5-4.09v-1.36c-1.56,1.77-3.62,2.65-6.16,2.65
			c-3.05,0-5.51-1.19-7.39-3.57s-2.82-5.54-2.82-9.48V908.16z M1434.82,908.66c0,2.3,0.46,4.1,1.38,5.41s2.19,1.96,3.8,1.96
			c2.06,0,3.54-0.77,4.43-2.32v-10.68c-0.91-1.55-2.37-2.32-4.38-2.32c-1.62,0-2.9,0.67-3.83,2S1434.82,906.02,1434.82,908.66z"/>
		<path class="st12" d="M1467.45,911.84c0-1.58,0.44-3.04,1.32-4.38s2.5-2.84,4.86-4.48c-1.02-1.36-1.81-2.64-2.39-3.83
			s-0.87-2.44-0.87-3.74c0-2.66,0.84-4.82,2.52-6.48s3.94-2.5,6.79-2.5c2.55,0,4.64,0.76,6.27,2.27s2.45,3.41,2.45,5.67
			c0,2.72-1.38,5.12-4.12,7.2l-2.62,1.9l5.88,6.84c0.92-1.81,1.38-3.81,1.38-6h5.77c0,4.44-1.02,8.03-3.07,10.78l5.11,5.93h-7.69
			l-1.76-2.02c-2.52,1.66-5.41,2.48-8.67,2.48c-3.38,0-6.08-0.89-8.11-2.66S1467.45,914.73,1467.45,911.84z M1478.93,916.03
			c1.62,0,3.16-0.45,4.62-1.36l-6.73-7.76l-0.49,0.35c-1.39,1.18-2.09,2.58-2.09,4.18c0,1.36,0.43,2.46,1.3,3.31
			S1477.54,916.03,1478.93,916.03z M1476.45,895.32c0,1.17,0.69,2.65,2.06,4.43l1.8-1.2c0.92-0.59,1.56-1.17,1.91-1.73
			s0.53-1.23,0.53-2.02s-0.29-1.46-0.87-2.04s-1.32-0.87-2.23-0.87c-0.97,0-1.75,0.31-2.33,0.94S1476.45,894.28,1476.45,895.32z"/>
		<path class="st12" d="M1524.89,912.57l7.73-25.66h7.83l-11.88,34.12h-7.34l-11.84-34.12h7.8L1524.89,912.57z"/>
		<path class="st12" d="M1543.17,889.1c0-1.02,0.34-1.85,1.02-2.51s1.61-0.98,2.78-0.98c1.16,0,2.08,0.33,2.77,0.98
			s1.03,1.49,1.03,2.51c0,1.03-0.35,1.88-1.04,2.53s-1.61,0.98-2.75,0.98s-2.06-0.33-2.75-0.98S1543.17,890.14,1543.17,889.1z
			 M1550.37,921.03h-6.8v-25.36h6.8V921.03z"/>
		<path class="st12" d="M1569.68,914.02c0-0.83-0.41-1.48-1.23-1.96s-2.14-0.9-3.95-1.28c-6.03-1.27-9.05-3.83-9.05-7.69
			c0-2.25,0.93-4.13,2.8-5.64s4.31-2.26,7.32-2.26c3.22,0,5.79,0.76,7.72,2.27s2.89,3.48,2.89,5.91h-6.77c0-0.97-0.31-1.77-0.94-2.4
			s-1.6-0.95-2.93-0.95c-1.14,0-2.02,0.26-2.65,0.77s-0.94,1.17-0.94,1.97c0,0.75,0.36,1.36,1.07,1.82s1.91,0.86,3.6,1.2
			s3.11,0.71,4.27,1.14c3.58,1.31,5.37,3.59,5.37,6.82c0,2.31-0.99,4.18-2.98,5.61s-4.55,2.14-7.69,2.14
			c-2.12,0-4.01-0.38-5.66-1.14s-2.94-1.8-3.88-3.12s-1.41-2.75-1.41-4.28h6.42c0.06,1.2,0.51,2.12,1.34,2.77s1.94,0.96,3.33,0.96
			c1.3,0,2.28-0.25,2.94-0.74S1569.68,914.82,1569.68,914.02z"/>
		<path class="st12" d="M1580.58,889.1c0-1.02,0.34-1.85,1.02-2.51s1.61-0.98,2.78-0.98c1.16,0,2.08,0.33,2.77,0.98
			s1.03,1.49,1.03,2.51c0,1.03-0.35,1.88-1.04,2.53s-1.61,0.98-2.75,0.98s-2.06-0.33-2.75-0.98S1580.58,890.14,1580.58,889.1z
			 M1587.77,921.03h-6.8v-25.36h6.8V921.03z"/>
		<path class="st12" d="M1616.2,908.58c0,4.06-0.87,7.23-2.6,9.5s-4.16,3.41-7.27,3.41c-2.75,0-4.95-1.05-6.59-3.16l-0.3,2.7h-6.09
			v-36h6.77v12.91c1.56-1.83,3.62-2.74,6.16-2.74c3.09,0,5.52,1.14,7.28,3.41s2.64,5.47,2.64,9.6V908.58z M1609.43,908.09
			c0-2.56-0.41-4.43-1.22-5.61s-2.02-1.77-3.63-1.77c-2.16,0-3.64,0.88-4.45,2.65v10.01c0.83,1.78,2.33,2.67,4.5,2.67
			c2.19,0,3.62-1.08,4.31-3.23C1609.27,911.77,1609.43,910.2,1609.43,908.09z"/>
		<path class="st12" d="M1620.33,889.1c0-1.02,0.34-1.85,1.02-2.51s1.61-0.98,2.78-0.98c1.16,0,2.08,0.33,2.77,0.98
			s1.03,1.49,1.03,2.51c0,1.03-0.35,1.88-1.04,2.53s-1.61,0.98-2.75,0.98s-2.06-0.33-2.75-0.98S1620.33,890.14,1620.33,889.1z
			 M1627.52,921.03h-6.8v-25.36h6.8V921.03z"/>
		<path class="st12" d="M1640.25,921.03h-6.8v-36h6.8V921.03z"/>
		<path class="st12" d="M1645.78,889.1c0-1.02,0.34-1.85,1.02-2.51s1.61-0.98,2.78-0.98c1.16,0,2.08,0.33,2.77,0.98
			s1.03,1.49,1.03,2.51c0,1.03-0.35,1.88-1.04,2.53s-1.61,0.98-2.75,0.98s-2.06-0.33-2.75-0.98S1645.78,890.14,1645.78,889.1z
			 M1652.98,921.03h-6.8v-25.36h6.8V921.03z"/>
		<path class="st12" d="M1666.66,889.43v6.23h4.34v4.97h-4.34v12.66c0,0.94,0.18,1.61,0.54,2.02s1.05,0.61,2.06,0.61
			c0.75,0,1.41-0.05,1.99-0.16v5.13c-1.33,0.41-2.7,0.61-4.1,0.61c-4.75,0-7.17-2.4-7.27-7.2v-13.66h-3.7v-4.97h3.7v-6.23H1666.66z"
			/>
		<path class="st12" d="M1684.24,911.44l4.69-15.77h7.27l-10.2,29.3l-0.56,1.34c-1.52,3.31-4.02,4.97-7.5,4.97
			c-0.98,0-1.98-0.15-3-0.45v-5.13l1.03,0.02c1.28,0,2.24-0.2,2.87-0.59s1.13-1.04,1.49-1.95l0.8-2.09l-8.88-25.43h7.29
			L1684.24,911.44z"/>
	</g>
</g>
<g>
	<g>
		<path class="st12" d="M1121.65,1176.9v-34.12h10.5c3,0,5.68,0.68,8.05,2.03s4.21,3.27,5.54,5.77s1.99,5.32,1.99,8.5v1.57
			c0,3.17-0.65,5.99-1.96,8.46s-3.14,4.38-5.52,5.74s-5.05,2.05-8.04,2.06H1121.65z M1128.68,1148.47v22.78h3.4
			c2.75,0,4.85-0.9,6.3-2.7s2.2-4.37,2.23-7.71v-1.8c0-3.47-0.72-6.1-2.16-7.89s-3.54-2.68-6.3-2.68H1128.68z"/>
		<path class="st12" d="M1151.35,1163.98c0-2.52,0.48-4.76,1.45-6.73s2.36-3.49,4.18-4.57s3.93-1.62,6.34-1.62
			c3.42,0,6.21,1.05,8.38,3.14s3.37,4.94,3.62,8.53l0.05,1.73c0,3.89-1.09,7.01-3.26,9.36s-5.09,3.53-8.74,3.53
			s-6.57-1.17-8.75-3.52s-3.27-5.53-3.27-9.56V1163.98z M1158.12,1164.46c0,2.41,0.45,4.25,1.36,5.53s2.2,1.91,3.89,1.91
			c1.64,0,2.92-0.63,3.84-1.89s1.38-3.27,1.38-6.04c0-2.36-0.46-4.19-1.38-5.49s-2.22-1.95-3.89-1.95c-1.66,0-2.94,0.65-3.84,1.94
			S1158.12,1161.76,1158.12,1164.46z"/>
		<path class="st12" d="M1190.09,1171.9c1.25,0,2.27-0.34,3.05-1.03s1.19-1.6,1.22-2.74h6.35c-0.02,1.72-0.48,3.29-1.41,4.72
			s-2.18,2.54-3.79,3.33s-3.37,1.18-5.31,1.18c-3.62,0-6.48-1.15-8.58-3.46s-3.14-5.49-3.14-9.55v-0.45c0-3.91,1.04-7.02,3.12-9.35
			s4.93-3.49,8.55-3.49c3.17,0,5.71,0.9,7.63,2.71s2.89,4.21,2.92,7.21h-6.35c-0.03-1.32-0.44-2.39-1.22-3.22
			c-0.78-0.83-1.81-1.24-3.09-1.24c-1.58,0-2.77,0.58-3.57,1.73s-1.21,3.02-1.21,5.6v0.71c0,2.61,0.4,4.49,1.2,5.63
			S1188.46,1171.9,1190.09,1171.9z"/>
		<path class="st12" d="M1219.76,1174.32c-1.67,2.03-3.98,3.05-6.94,3.05c-2.72,0-4.79-0.78-6.22-2.34s-2.16-3.85-2.19-6.87v-16.62
			h6.77v16.4c0,2.64,1.2,3.96,3.61,3.96c2.3,0,3.88-0.8,4.73-2.39v-17.97h6.8v25.36h-6.38L1219.76,1174.32z"/>
		<path class="st12" d="M1237.78,1151.54l0.21,2.84c1.8-2.2,4.23-3.3,7.29-3.3c3.27,0,5.51,1.29,6.73,3.87
			c1.78-2.58,4.32-3.87,7.62-3.87c2.75,0,4.8,0.8,6.14,2.4s2.02,4.01,2.02,7.23v16.2h-6.8v-16.17c0-1.44-0.28-2.49-0.84-3.15
			s-1.55-1-2.98-1c-2.03,0-3.44,0.97-4.22,2.91l0.02,17.41h-6.77v-16.15c0-1.47-0.29-2.53-0.87-3.19s-1.56-0.98-2.95-0.98
			c-1.92,0-3.31,0.8-4.17,2.39v17.93h-6.77v-25.36H1237.78z"/>
		<path class="st12" d="M1284.66,1177.37c-3.72,0-6.75-1.14-9.08-3.42s-3.5-5.32-3.5-9.12v-0.66c0-2.55,0.49-4.82,1.48-6.83
			s2.38-3.55,4.18-4.64s3.86-1.63,6.18-1.63c3.47,0,6.2,1.09,8.19,3.28s2.99,5.29,2.99,9.3v2.77h-16.15
			c0.22,1.66,0.88,2.98,1.98,3.98s2.5,1.5,4.18,1.5c2.61,0,4.65-0.95,6.12-2.84l3.33,3.73c-1.02,1.44-2.39,2.56-4.12,3.36
			S1286.77,1177.37,1284.66,1177.37z M1283.89,1156.53c-1.34,0-2.43,0.46-3.27,1.37c-0.84,0.91-1.37,2.21-1.61,3.91h9.42v-0.54
			c-0.03-1.51-0.44-2.67-1.22-3.5S1285.32,1156.53,1283.89,1156.53z"/>
		<path class="st12" d="M1305.17,1151.54l0.21,2.93c1.81-2.27,4.24-3.4,7.29-3.4c2.69,0,4.69,0.79,6,2.37s1.98,3.94,2.02,7.08v16.38
			h-6.77v-16.22c0-1.44-0.31-2.48-0.94-3.13s-1.66-0.97-3.12-0.97c-1.91,0-3.34,0.81-4.29,2.44v17.88h-6.77v-25.36H1305.17z"/>
		<path class="st12" d="M1333.92,1145.3v6.23h4.34v4.97h-4.34v12.66c0,0.94,0.18,1.61,0.54,2.02s1.05,0.61,2.06,0.61
			c0.75,0,1.41-0.05,1.99-0.16v5.13c-1.33,0.41-2.7,0.61-4.1,0.61c-4.75,0-7.17-2.4-7.27-7.2v-13.66h-3.7v-4.97h3.7v-6.23H1333.92z"
			/>
		<path class="st12" d="M1372.13,1167.94c0-1.33-0.47-2.35-1.41-3.06s-2.62-1.46-5.06-2.25s-4.37-1.57-5.79-2.33
			c-3.88-2.09-5.81-4.91-5.81-8.46c0-1.84,0.52-3.49,1.56-4.93s2.53-2.57,4.48-3.39s4.13-1.22,6.55-1.22c2.44,0,4.61,0.44,6.52,1.32
			s3.39,2.13,4.44,3.74s1.58,3.44,1.58,5.48h-7.03c0-1.56-0.49-2.78-1.48-3.64s-2.37-1.3-4.15-1.3c-1.72,0-3.05,0.36-4.01,1.09
			s-1.43,1.68-1.43,2.87c0,1.11,0.56,2.04,1.68,2.79s2.76,1.45,4.93,2.11c4,1.2,6.91,2.7,8.74,4.48s2.74,4,2.74,6.66
			c0,2.95-1.12,5.27-3.35,6.95s-5.24,2.52-9.02,2.52c-2.62,0-5.02-0.48-7.17-1.44s-3.8-2.28-4.93-3.95s-1.7-3.61-1.7-5.81h7.05
			c0,3.77,2.25,5.65,6.75,5.65c1.67,0,2.98-0.34,3.91-1.02S1372.13,1169.16,1372.13,1167.94z"/>
		<path class="st12" d="M1391.6,1145.3v6.23h4.34v4.97h-4.34v12.66c0,0.94,0.18,1.61,0.54,2.02s1.05,0.61,2.06,0.61
			c0.75,0,1.41-0.05,1.99-0.16v5.13c-1.33,0.41-2.7,0.61-4.1,0.61c-4.75,0-7.17-2.4-7.27-7.2v-13.66h-3.7v-4.97h3.7v-6.23H1391.6z"
			/>
		<path class="st12" d="M1397.96,1163.98c0-2.52,0.48-4.76,1.45-6.73s2.36-3.49,4.18-4.57s3.93-1.62,6.34-1.62
			c3.42,0,6.21,1.05,8.38,3.14s3.37,4.94,3.62,8.53l0.05,1.73c0,3.89-1.09,7.01-3.26,9.36s-5.09,3.53-8.74,3.53
			s-6.57-1.17-8.75-3.52s-3.27-5.53-3.27-9.56V1163.98z M1404.73,1164.46c0,2.41,0.45,4.25,1.36,5.53s2.2,1.91,3.89,1.91
			c1.64,0,2.92-0.63,3.84-1.89s1.38-3.27,1.38-6.04c0-2.36-0.46-4.19-1.38-5.49s-2.22-1.95-3.89-1.95c-1.66,0-2.94,0.65-3.84,1.94
			S1404.73,1161.76,1404.73,1164.46z"/>
		<path class="st12" d="M1440.4,1157.89c-0.92-0.12-1.73-0.19-2.44-0.19c-2.56,0-4.24,0.87-5.04,2.6v16.59h-6.77v-25.36h6.4
			l0.19,3.02c1.36-2.33,3.24-3.49,5.65-3.49c0.75,0,1.45,0.1,2.11,0.3L1440.4,1157.89z"/>
		<path class="st12" d="M1457.65,1176.9c-0.31-0.61-0.54-1.37-0.68-2.27c-1.64,1.83-3.77,2.74-6.4,2.74c-2.48,0-4.54-0.72-6.18-2.16
			s-2.45-3.25-2.45-5.44c0-2.69,1-4.75,2.99-6.19s4.87-2.16,8.64-2.18h3.12v-1.45c0-1.17-0.3-2.11-0.9-2.81s-1.55-1.05-2.85-1.05
			c-1.14,0-2.04,0.27-2.68,0.82s-0.97,1.3-0.97,2.25h-6.77c0-1.47,0.45-2.83,1.36-4.08s2.19-2.23,3.84-2.94s3.52-1.07,5.58-1.07
			c3.12,0,5.61,0.79,7.44,2.36s2.75,3.78,2.75,6.62v10.99c0.02,2.41,0.35,4.23,1.01,5.46v0.4H1457.65z M1452.05,1172.19
			c1,0,1.92-0.22,2.77-0.67s1.47-1.04,1.88-1.79v-4.36h-2.53c-3.39,0-5.2,1.17-5.41,3.52l-0.02,0.4c0,0.84,0.3,1.54,0.89,2.09
			S1451.02,1172.19,1452.05,1172.19z"/>
		<path class="st12" d="M1467.71,1164.03c0-3.89,0.93-7.02,2.78-9.4s4.35-3.56,7.49-3.56c2.78,0,4.95,0.95,6.49,2.86l0.28-2.39h6.14
			v24.52c0,2.22-0.5,4.15-1.51,5.79s-2.43,2.89-4.25,3.75s-3.97,1.29-6.42,1.29c-1.86,0-3.67-0.37-5.44-1.11s-3.1-1.7-4.01-2.87
			l3-4.12c1.69,1.89,3.73,2.84,6.14,2.84c1.8,0,3.2-0.48,4.2-1.44s1.5-2.32,1.5-4.09v-1.36c-1.56,1.77-3.62,2.65-6.16,2.65
			c-3.05,0-5.51-1.19-7.39-3.57s-2.82-5.54-2.82-9.48V1164.03z M1474.48,1164.53c0,2.3,0.46,4.1,1.38,5.41s2.19,1.96,3.8,1.96
			c2.06,0,3.54-0.77,4.43-2.32v-10.68c-0.91-1.55-2.37-2.32-4.38-2.32c-1.62,0-2.9,0.67-3.83,2S1474.48,1161.89,1474.48,1164.53z"/>
		<path class="st12" d="M1507.76,1177.37c-3.72,0-6.75-1.14-9.08-3.42s-3.5-5.32-3.5-9.12v-0.66c0-2.55,0.49-4.82,1.48-6.83
			s2.38-3.55,4.18-4.64s3.86-1.63,6.18-1.63c3.47,0,6.2,1.09,8.19,3.28s2.99,5.29,2.99,9.3v2.77h-16.15
			c0.22,1.66,0.88,2.98,1.98,3.98s2.5,1.5,4.18,1.5c2.61,0,4.65-0.95,6.12-2.84l3.33,3.73c-1.02,1.44-2.39,2.56-4.12,3.36
			S1509.87,1177.37,1507.76,1177.37z M1506.99,1156.53c-1.34,0-2.43,0.46-3.27,1.37c-0.84,0.91-1.37,2.21-1.61,3.91h9.42v-0.54
			c-0.03-1.51-0.44-2.67-1.22-3.5S1508.42,1156.53,1506.99,1156.53z"/>
		<path class="st12" d="M1120.27,1225.31c0-1.58,0.44-3.04,1.32-4.38s2.5-2.84,4.86-4.48c-1.02-1.36-1.81-2.64-2.39-3.83
			s-0.87-2.44-0.87-3.74c0-2.66,0.84-4.82,2.52-6.48s3.94-2.5,6.79-2.5c2.55,0,4.64,0.76,6.27,2.27s2.45,3.41,2.45,5.67
			c0,2.72-1.38,5.12-4.12,7.2l-2.62,1.9l5.88,6.84c0.92-1.81,1.38-3.81,1.38-6h5.77c0,4.44-1.02,8.03-3.07,10.78l5.11,5.93h-7.69
			l-1.76-2.02c-2.52,1.66-5.41,2.48-8.67,2.48c-3.38,0-6.08-0.89-8.11-2.66S1120.27,1228.2,1120.27,1225.31z M1131.75,1229.51
			c1.62,0,3.16-0.45,4.62-1.36l-6.73-7.76l-0.49,0.35c-1.39,1.18-2.09,2.58-2.09,4.18c0,1.36,0.43,2.46,1.3,3.31
			C1129.23,1229.08,1130.36,1229.51,1131.75,1229.51z M1129.27,1208.79c0,1.17,0.69,2.65,2.06,4.43l1.8-1.2
			c0.92-0.59,1.56-1.17,1.91-1.73s0.53-1.23,0.53-2.02s-0.29-1.46-0.87-2.04s-1.32-0.87-2.23-0.87c-0.97,0-1.75,0.31-2.33,0.94
			S1129.27,1207.76,1129.27,1208.79z"/>
		<path class="st12" d="M1165.1,1234.5v-34.12h10.5c3,0,5.68,0.68,8.05,2.03s4.21,3.27,5.54,5.77s1.99,5.32,1.99,8.5v1.57
			c0,3.17-0.65,5.99-1.96,8.46s-3.14,4.38-5.52,5.74s-5.05,2.05-8.04,2.06H1165.1z M1172.14,1206.07v22.78h3.4
			c2.75,0,4.85-0.9,6.3-2.7s2.2-4.37,2.23-7.71v-1.8c0-3.47-0.72-6.1-2.16-7.89s-3.54-2.68-6.3-2.68H1172.14z"/>
		<path class="st12" d="M1207.53,1234.97c-3.72,0-6.75-1.14-9.08-3.42s-3.5-5.32-3.5-9.12v-0.66c0-2.55,0.49-4.82,1.48-6.83
			s2.38-3.55,4.18-4.64s3.86-1.63,6.18-1.63c3.47,0,6.2,1.09,8.19,3.28s2.99,5.29,2.99,9.3v2.77h-16.15
			c0.22,1.66,0.88,2.98,1.98,3.98s2.5,1.5,4.18,1.5c2.61,0,4.65-0.95,6.12-2.84l3.33,3.73c-1.02,1.44-2.39,2.56-4.12,3.36
			S1209.64,1234.97,1207.53,1234.97z M1206.75,1214.13c-1.34,0-2.43,0.46-3.27,1.37s-1.37,2.21-1.61,3.91h9.42v-0.54
			c-0.03-1.51-0.44-2.67-1.22-3.5C1209.3,1214.54,1208.19,1214.13,1206.75,1214.13z"/>
		<path class="st12" d="M1228.95,1234.5h-6.8v-36h6.8V1234.5z"/>
		<path class="st12" d="M1234.48,1202.58c0-1.02,0.34-1.85,1.02-2.51s1.61-0.98,2.78-0.98c1.16,0,2.08,0.33,2.77,0.98
			s1.03,1.49,1.03,2.51c0,1.03-0.35,1.88-1.04,2.53s-1.61,0.98-2.75,0.98s-2.06-0.33-2.75-0.98S1234.48,1203.61,1234.48,1202.58z
			 M1241.67,1234.5h-6.8v-25.36h6.8V1234.5z"/>
		<path class="st12" d="M1256.75,1226.22l4.71-17.09h7.08l-8.55,25.36h-6.47l-8.55-25.36h7.08L1256.75,1226.22z"/>
		<path class="st12" d="M1282.88,1234.97c-3.72,0-6.75-1.14-9.08-3.42s-3.5-5.32-3.5-9.12v-0.66c0-2.55,0.49-4.82,1.48-6.83
			s2.38-3.55,4.18-4.64s3.86-1.63,6.18-1.63c3.47,0,6.2,1.09,8.19,3.28s2.99,5.29,2.99,9.3v2.77h-16.15
			c0.22,1.66,0.88,2.98,1.98,3.98s2.5,1.5,4.18,1.5c2.61,0,4.65-0.95,6.12-2.84l3.33,3.73c-1.02,1.44-2.39,2.56-4.12,3.36
			S1284.99,1234.97,1282.88,1234.97z M1282.1,1214.13c-1.34,0-2.43,0.46-3.27,1.37s-1.37,2.21-1.61,3.91h9.42v-0.54
			c-0.03-1.51-0.44-2.67-1.22-3.5C1284.65,1214.54,1283.54,1214.13,1282.1,1214.13z"/>
		<path class="st12" d="M1311.4,1215.49c-0.92-0.12-1.73-0.19-2.44-0.19c-2.56,0-4.24,0.87-5.04,2.6v16.59h-6.77v-25.36h6.4
			l0.19,3.02c1.36-2.33,3.24-3.49,5.65-3.49c0.75,0,1.45,0.1,2.11,0.3L1311.4,1215.49z"/>
		<path class="st12" d="M1324.55,1224.91l4.69-15.77h7.27l-10.2,29.3l-0.56,1.34c-1.52,3.31-4.02,4.97-7.5,4.97
			c-0.98,0-1.98-0.15-3-0.45v-5.13l1.03,0.02c1.28,0,2.24-0.2,2.87-0.59s1.13-1.04,1.49-1.95l0.8-2.09l-8.88-25.43h7.29
			L1324.55,1224.91z"/>
	</g>
</g>
<polygon class="st14" points="851.85,1132.85 851.85,1148.1 884.03,1149.79 906.62,1172.38 906.62,1221.29 923,1222.92 
	925.54,1217.85 927.7,1151.27 901.82,1130.87 "/>
<polygon class="st14" points="1086.4,513.26 1086.4,531.51 1074.84,540.02 1054.46,547.02 1034.08,548.45 1034.08,555.94 
	1044.12,567.86 1077,574.39 1105.25,570.32 1117.47,562.14 1121.07,544.07 1121.07,527.72 1107.63,517.77 "/>
<path class="st11" d="M927.7,1151.27l-22.92-22.92c-0.31-0.33-0.68-0.59-1.09-0.77c-0.41-0.18-0.86-0.27-1.31-0.26h-45.84
	c-2.13,0-4.17,0.85-5.67,2.35s-2.35,3.54-2.35,5.67v10.31H838.2c-2.13,0-4.17,0.85-5.67,2.35s-2.35,3.54-2.35,5.67v82.5
	c0,2.13,0.85,4.17,2.35,5.67c1.5,1.5,3.54,2.35,5.67,2.35h64.17c2.13,0,4.17-0.85,5.67-2.35c1.5-1.5,2.35-3.54,2.35-5.67v-10.31
	h10.31c2.13,0,4.17-0.85,5.67-2.35c1.5-1.5,2.35-3.54,2.35-5.67v-64.17c0.01-0.45-0.08-0.9-0.26-1.31
	C928.29,1151.95,928.03,1151.58,927.7,1151.27L927.7,1151.27z M903.52,1236.19c0,0.3-0.12,0.6-0.34,0.81s-0.51,0.34-0.81,0.34H838.2
	c-0.3,0-0.6-0.12-0.81-0.34s-0.34-0.51-0.34-0.81v-82.5c0-0.3,0.12-0.6,0.34-0.81c0.21-0.21,0.51-0.34,0.81-0.34h44.4l20.91,20.91
	V1236.19z M921.85,1217.85c0,0.3-0.12,0.6-0.34,0.81c-0.21,0.21-0.51,0.34-0.81,0.34H910.4v-46.98c0.01-0.45-0.08-0.9-0.26-1.31
	s-0.44-0.79-0.77-1.09l-22.92-22.92c-0.31-0.33-0.68-0.59-1.09-0.77c-0.41-0.18-0.86-0.27-1.31-0.26h-28.65v-10.31
	c0-0.3,0.12-0.6,0.34-0.81c0.21-0.21,0.51-0.34,0.81-0.34h44.4l20.91,20.91V1217.85z M887.48,1199.52c0,0.91-0.36,1.79-1.01,2.43
	c-0.64,0.65-1.52,1.01-2.43,1.01h-27.5c-0.91,0-1.79-0.36-2.43-1.01c-0.64-0.64-1.01-1.52-1.01-2.43c0-0.91,0.36-1.79,1.01-2.43
	c0.64-0.64,1.52-1.01,2.43-1.01h27.5c0.91,0,1.79,0.36,2.43,1.01C887.12,1197.73,887.48,1198.6,887.48,1199.52z M887.48,1217.85
	c0,0.91-0.36,1.79-1.01,2.43c-0.64,0.65-1.52,1.01-2.43,1.01h-27.5c-0.91,0-1.79-0.36-2.43-1.01c-0.64-0.64-1.01-1.52-1.01-2.43
	c0-0.91,0.36-1.79,1.01-2.43c0.64-0.64,1.52-1.01,2.43-1.01h27.5c0.91,0,1.79,0.36,2.43,1.01
	C887.12,1216.06,887.48,1216.94,887.48,1217.85z"/>
<path class="st15" d="M1112.33,516.62c-6.12-3.34-14.27-5.69-23.3-6.84v-3.99c0-6.62-5.25-12.63-14.77-16.9
	c-8.64-3.94-20.12-6.07-32.27-6.07s-23.62,2.13-32.27,6.07c-9.52,4.27-14.77,10.28-14.77,16.9v21.87c0,6.62,5.25,12.63,14.77,16.9
	c6.45,2.77,13.26,4.57,20.23,5.36v3.99c0,6.62,5.25,12.63,14.77,16.9c8.64,3.94,20.12,6.07,32.27,6.07
	c12.14,0,23.62-2.13,32.27-6.07c9.52-4.27,14.77-10.28,14.77-16.9v-21.87C1124.03,526.19,1119.88,520.72,1112.33,516.62
	L1112.33,516.62z M1109.16,522.36c5.36,2.95,8.31,6.34,8.31,9.68c0,7.77-16.62,16.41-40.47,16.41c-3.88-0.01-7.75-0.25-11.59-0.71
	c3.04-0.81,6-1.87,8.86-3.17c9.52-4.27,14.77-10.28,14.77-16.9V516.4C1096.91,517.49,1103.96,519.57,1109.16,522.36L1109.16,522.36z
	 M1033.64,543.69h-0.16c-1.97-0.16-3.88-0.44-5.69-0.71v-15.26c4.71,0.69,9.46,1.03,14.22,1.04c4.76-0.01,9.51-0.35,14.22-1.04
	v15.26c-4.7,0.74-9.46,1.11-14.22,1.09C1039.21,544.08,1036.42,543.96,1033.64,543.69L1033.64,543.69z M1082.47,517.77v9.9
	c0,5.2-7.49,10.83-19.69,13.95v-15.15c3.95-0.85,7.8-2.12,11.48-3.77C1077.22,521.44,1079.98,519.78,1082.47,517.77z M1042,489.38
	c23.84,0,40.47,8.64,40.47,16.41c0,7.77-16.62,16.41-40.47,16.41s-40.47-8.64-40.47-16.41
	C1001.54,498.02,1018.16,489.38,1042,489.38z M1001.54,527.66v-9.9c2.49,2.02,5.25,3.67,8.2,4.92c3.69,1.66,7.53,2.92,11.48,3.77
	v15.15C1009.03,538.49,1001.54,532.86,1001.54,527.66z M1036.54,553.91v-3.45c1.8,0.11,3.61,0.16,5.47,0.16s4.27-0.05,6.4-0.22
	c2.54,0.97,5.16,1.74,7.82,2.3v15.15C1044.03,564.74,1036.54,559.11,1036.54,553.91L1036.54,553.91z M1062.78,569.23v-15.26
	c4.71,0.68,9.46,1.03,14.22,1.04c4.76-0.01,9.51-0.35,14.22-1.04v15.26C1081.8,570.69,1072.21,570.69,1062.78,569.23L1062.78,569.23
	z M1097.78,567.86v-15.15c3.95-0.85,7.8-2.12,11.48-3.77c2.95-1.25,5.71-2.91,8.2-4.92v9.9
	C1117.47,559.11,1109.98,564.74,1097.78,567.86z"/>
<g>
	<polygon class="st14" points="1027.27,879.65 1025.55,906.44 1050.97,904.73 1047.53,919.09 1033.4,929.06 1014.86,927.23 
		1002.45,914.05 1004.86,894.66 1016.57,882.58 	"/>
	<path class="st15" d="M1105.86,900.59h8.27v33.09h-8.27V900.59z M1089.32,884.05h8.27v49.64h-8.27V884.05z M1072.77,917.14h8.27
		v16.55h-8.27V917.14z M1027.27,875.77c-5.73,0-11.33,1.7-16.09,4.88s-8.47,7.7-10.66,13c-2.19,5.29-2.77,11.11-1.65,16.73
		c1.12,5.62,3.88,10.78,7.92,14.83c4.05,4.05,9.21,6.81,14.83,7.93c5.62,1.12,11.44,0.54,16.73-1.65c5.29-2.19,9.81-5.9,13-10.66
		c3.18-4.76,4.88-10.36,4.88-16.09c-0.01-7.68-3.06-15.04-8.49-20.47C1042.3,878.84,1034.94,875.78,1027.27,875.77L1027.27,875.77z
		 M1047.53,900.59h-16.13v-16.13c3.97,0.82,7.61,2.78,10.48,5.65C1044.75,892.98,1046.71,896.62,1047.53,900.59L1047.53,900.59z
		 M1027.27,925.41c-5.13,0-10.07-1.9-13.87-5.34c-3.8-3.44-6.19-8.16-6.71-13.26c-0.52-5.1,0.88-10.21,3.92-14.34
		s7.5-6.98,12.52-8.01v16.13c0,2.19,0.87,4.3,2.42,5.85c1.55,1.55,3.66,2.42,5.85,2.42h16.13c-0.96,4.67-3.5,8.86-7.19,11.88
		S1032.03,925.41,1027.27,925.41L1027.27,925.41z M1083.26,859.23l16.55-24.82h14.33v-8.27h-18.76l-16.55,24.82h-14.33v-33.09h-8.27
		v49.64c0,2.19,0.87,4.3,2.42,5.85c1.55,1.55,3.66,2.42,5.85,2.42h49.64v-8.27h-49.64v-8.27H1083.26z"/>
	<path class="st15" d="M1035.54,842.68c2.28,0,4.14-1.85,4.14-4.14s-1.85-4.14-4.14-4.14c-2.28,0-4.14,1.85-4.14,4.14
		S1033.25,842.68,1035.54,842.68z"/>
	<path class="st15" d="M1027.27,859.23c2.28,0,4.14-1.85,4.14-4.14c0-2.28-1.85-4.14-4.14-4.14c-2.28,0-4.14,1.85-4.14,4.14
		C1023.13,857.38,1024.98,859.23,1027.27,859.23z"/>
	<path class="st15" d="M1018.99,834.41c2.28,0,4.14-1.85,4.14-4.14s-1.85-4.14-4.14-4.14c-2.28,0-4.14,1.85-4.14,4.14
		S1016.71,834.41,1018.99,834.41z"/>
	<path class="st15" d="M1010.72,850.96c2.28,0,4.14-1.85,4.14-4.14c0-2.28-1.85-4.14-4.14-4.14s-4.14,1.85-4.14,4.14
		C1006.58,849.1,1008.43,850.96,1010.72,850.96z"/>
	<path class="st15" d="M1002.45,867.5c2.28,0,4.14-1.85,4.14-4.14c0-2.28-1.85-4.14-4.14-4.14s-4.14,1.85-4.14,4.14
		C998.31,865.65,1000.16,867.5,1002.45,867.5z"/>
</g>
<path class="st6" d="M967.67,77.37c0,0,99.83,55.51,84.97,171.81c-5.68,44.45-27.05,85.56-59.97,115.96
	c-7.5,6.92-15.88,13.6-25,19.28"/>
<g>
	<path class="st10" d="M975.02,70.02c4.06,4.06,4.06,10.63,0,14.69c-4.06,4.06-10.63,4.06-14.69,0c-4.06-4.06-4.06-10.63,0-14.69
		C964.39,65.97,970.96,65.97,975.02,70.02z"/>
</g>
<g>
	<path class="st10" d="M975.02,377.07c4.06,4.06,4.06,10.63,0,14.69c-4.06,4.06-10.63,4.06-14.69,0c-4.06-4.06-4.06-10.63,0-14.69
		C964.39,373.02,970.96,373.02,975.02,377.07z"/>
</g>
<g>
	<polygon class="st14" points="854.22,196.37 856.04,170.93 875.9,152.82 887.95,150.71 911.37,159.6 923.24,186 919.91,200.98 
		902.64,218.08 887.95,221.29 869.88,216.31 	"/>
	<path class="st16" d="M929.21,229.76c-3.96-3.18-10.3-3.97-14.26,0.79c-9.5,10.33-9.5,10.33-9.5,10.33
		c-1.58-3.97-4.75-7.15-9.5-7.15c-17.42,0-17.42,0-17.42,0c-1.58,0-1.58-0.79-3.96-2.38c-8.71-7.15-22.18-7.15-30.89,0
		c-6.34,5.56-6.34,5.56-6.34,5.56c-2.38-1.59-6.34-1.59-8.71,0c-7.92,3.97-7.92,3.97-7.92,3.97c-1.58,0.79-2.38,2.38-0.79,4.77
		c19.8,39.72,19.8,39.72,19.8,39.72c0.79,1.59,2.38,2.38,3.96,1.59c7.92-3.97,7.92-3.97,7.92-3.97c3.17-1.59,5.54-5.56,5.54-9.53
		c38.81,0,38.81,0,38.81,0c7.13,0,14.26-3.18,19.01-8.74c15.84-21.45,15.84-21.45,15.84-21.45
		C933.96,239.29,933.17,232.93,929.21,229.76z M848.42,277.41c-4.75,1.59-4.75,1.59-4.75,1.59c-16.63-33.36-16.63-33.36-16.63-33.36
		c3.96-2.38,3.96-2.38,3.96-2.38c1.58-0.79,3.96,0,4.75,1.59c14.26,27.8,14.26,27.8,14.26,27.8
		C850.8,274.24,850.01,276.62,848.42,277.41z M925.25,239.29c-15.84,21.45-15.84,21.45-15.84,21.45c-3.17,3.97-7.92,6.35-13.46,6.35
		c-41.18,0-41.18,0-41.18,0c-12.67-24.62-12.67-24.62-12.67-24.62c6.34-5.56,6.34-5.56,6.34-5.56c6.34-5.56,15.84-5.56,22.18,0
		c3.17,3.18,5.54,3.18,7.92,3.18c17.42,0,17.42,0,17.42,0c1.58,0,3.17,1.59,3.17,3.97c0,1.59-1.58,3.18-3.17,3.18
		c-16.63,0-16.63,0-16.63,0c-2.38,0-3.96,1.59-3.96,3.18s1.58,3.18,3.96,3.18c19.01,0,19.01,0,19.01,0c2.38,0,5.54-0.79,7.13-3.18
		c15.05-15.89,15.05-15.89,15.05-15.89c0.79-0.79,3.17-0.79,3.96,0C926.04,236.11,926.04,237.7,925.25,239.29z"/>
	<path class="st16" d="M887.81,172.44c2.3,0,4.03,1.71,4.03,3.71c0,2.28,1.73,3.99,3.45,3.99c2.3,0,4.03-1.71,4.03-3.99
		c0-4.86-3.16-8.85-7.48-10.56v-2.56c0-2-1.73-3.42-4.03-3.42c-2.01,0-3.45,1.71-3.45,3.42v2.56c-4.32,1.43-7.77,5.71-7.77,10.56
		c0,6.28,5.18,9.7,9.21,12.55c2.88,2.28,6.03,4.28,6.03,6.57c0,1.99-1.73,3.7-4.03,3.7c-2.01,0-3.45-1.71-3.45-3.7
		c0-2.28-2.02-3.99-3.74-3.99c-2.01,0-4.03,1.71-4.03,3.99c0,4.85,3.45,8.84,7.77,10.55v2.57c0,1.99,1.73,3.99,3.45,3.99
		c2.3,0,4.03-2,4.03-3.99v-2.57c4.32-1.42,7.48-5.71,7.48-10.55c0-6.28-4.88-9.7-8.91-12.55c-2.88-2.29-6.04-4.28-6.04-6.57
		C883.79,174.15,885.8,172.44,887.81,172.44z"/>
	<circle class="st17" cx="887.95" cy="186" r="35.29"/>
</g>
<polygon id="XMLID_86_" class="st18" points="386,541.36 227.28,598.41 227.28,598.44 386,660.65 544.73,598.45 "/>
<g id="XMLID_130_">
	<path id="XMLID_85_" class="st19" d="M282.67,686.17c18.71-9.12,40.44-13.74,64.59-13.74c20.42,0,35.86,3.45,38.74,4.14v-15.91
		l-158.75-62.23v150.5C239.51,722.14,258.14,698.12,282.67,686.17"/>
	<path id="XMLID_84_" class="st19" d="M342.75,683.12c-43.55,0-71.61,16.28-87.48,32.57c-17.17,17.62-24.25,35.59-24.32,35.78
		l-3.69,9.61v37.55L386,879.76v-191C370.91,685.04,356.36,683.12,342.75,683.12"/>
</g>
<path id="XMLID_74_" class="st19" d="M401.29,712.28v-38.86l5.6-2.24v38.74L401.29,712.28z M435.09,697.98v-24.84
	c0-3.62,0.38-8.33,0.38-8.33l-0.13,0.05l-5.73,35.44l-5.45,2.31l-5.81-30.89l-0.13,0.05c0,0,0.38,4.39,0.38,8.11v25.08l-5.26,2.23
	v-38.59l8.46-3.39l4.32,22.42c0.51,2.61,0.7,7.17,0.7,7.17l0.13-0.05c0,0,0.19-4.72,0.7-7.75l4.29-25.85l8.28-3.31v37.99
	L435.09,697.98z M454.88,674.94l-3.13,1.3v14.7l-5.31,2.25v-37.85l8.44-3.38c6.05-2.42,8.48-0.18,8.48,4.76v6.55
	C463.37,668.21,460.93,672.44,454.88,674.94z M458.13,659.07c0-2.36-1.04-3.45-3.24-2.56l-3.13,1.26v13.89l3.13-1.29
	c2.2-0.91,3.24-2.83,3.24-5.2V659.07z M467.9,684.11v-37.37l12.82-5.14v4.49l-7.65,3.08v11.26l6.75-2.77v4.55l-6.75,2.79v12.52
	l7.65-3.21v4.38L467.9,684.11z M495.93,672.26v-12.4c0-2.31-0.99-3.37-3.1-2.5l-2.82,1.16v16.23l-5.07,2.14v-36.99l7.89-3.16
	c5.78-2.32,8.11,0.12,8.11,4.96v4.5c0,2.53-1.34,5.16-3.14,6.8c2.09-0.02,3.14,1.97,3.14,4.78v12.36L495.93,672.26z M495.93,643.74
	c0-2.31-0.99-3.38-3.1-2.53l-2.82,1.14v12.11l2.82-1.16c2.11-0.87,3.1-2.74,3.1-5.05V643.74z M506.14,667.94v-36.52l4.94-1.98v36.41
	L506.14,667.94z M526.97,659.14l-1.18-8.74l-5.42,2.26l-1.19,9.78l-4.95,2.09l5.69-38.62l6.38-2.56l5.55,33.72L526.97,659.14z
	 M523.81,636.42c-0.34-2.47-0.68-6.76-0.68-6.76l-0.11,0.05c0,0-0.34,4.63-0.68,7.32l-1.36,11.43l4.18-1.73L523.81,636.42z
	 M534.91,655.78V619.9l4.77-1.91v31.54l7.05-2.96v4.21L534.91,655.78z"/>
<g id="XMLID_56_">
	<path id="XMLID_66_" class="st19" d="M427.68,804.28l-9.7,4.85v56.69l-16.7,8.67V727.93l26.4-11.33
		c18.41-7.9,25.69,1.06,25.69,19.61v24.6C453.37,779.36,446.09,795.08,427.68,804.28z M437.6,744.24c0-8.96-3.17-13.24-9.92-10.25
		l-9.7,4.3v53.29l9.7-4.71c6.76-3.28,9.92-10.5,9.92-19.46V744.24z"/>
	<path id="XMLID_63_" class="st19" d="M475.76,712.69v44.48l19.39-9.32v16.67l-19.39,9.59v62.41l-15.19,7.55v-141.6l37.11-15.93
		v16.43L475.76,712.69z"/>
	<path id="XMLID_58_" class="st19" d="M524.77,811.14c-13.64,7.53-22.91,2.38-22.91-16.67v-15.49l14.02-7.2v14.27
		c0,9.52,4.06,11.68,8.89,9.08c6.38-3.43,9.55-10.43,9.55-20.4c0-8.35-1.26-13.2-6.35-17.55l-15.69-13.85
		c-7.59-6.53-9.76-14.29-9.76-27.68c0-18.41,6.96-35.03,22.73-41.84c13.94-6.03,21.7,0.88,21.7,18.8v14.9l-13.27,6.25v-14.05
		c0-9.37-3.33-12.16-8.43-9.88c-5.8,2.59-8.72,10.1-8.72,19.4c0,8.48,1.3,13.45,6.47,18l15.4,13.94c7.16,6.32,9.17,13.76,9.17,26.63
		C547.58,785.48,540.13,802.67,524.77,811.14z"/>
</g>
<g>
	<path class="st19" d="M559.7,794.1c2.2,0,4.34,0.56,6.43,1.69c2.09,1.13,3.72,2.74,4.89,4.84c1.17,2.1,1.75,4.29,1.75,6.56
		c0,2.25-0.58,4.42-1.73,6.5c-1.15,2.08-2.76,3.7-4.84,4.85c-2.08,1.15-4.25,1.73-6.51,1.73s-4.44-0.58-6.51-1.73
		c-2.08-1.15-3.69-2.77-4.85-4.85c-1.16-2.08-1.73-4.25-1.73-6.5c0-2.28,0.59-4.47,1.76-6.56c1.17-2.1,2.81-3.71,4.9-4.84
		C555.36,794.66,557.5,794.1,559.7,794.1z M559.7,796.26c-1.84,0-3.63,0.47-5.37,1.41c-1.74,0.94-3.1,2.29-4.08,4.04
		c-0.98,1.75-1.47,3.58-1.47,5.47c0,1.88,0.48,3.69,1.45,5.42c0.97,1.73,2.32,3.08,4.05,4.04s3.54,1.45,5.43,1.45
		s3.69-0.48,5.43-1.45s3.08-2.31,4.04-4.04s1.44-3.54,1.44-5.42c0-1.9-0.49-3.72-1.47-5.47c-0.98-1.75-2.34-3.1-4.08-4.04
		C563.31,796.74,561.53,796.26,559.7,796.26z M553.96,814.42v-14.08h4.84c1.65,0,2.85,0.13,3.59,0.39c0.74,0.26,1.33,0.71,1.77,1.36
		c0.44,0.65,0.66,1.34,0.66,2.06c0,1.03-0.37,1.93-1.1,2.69s-1.71,1.19-2.92,1.28c0.5,0.21,0.9,0.46,1.2,0.75
		c0.57,0.55,1.26,1.49,2.08,2.79l1.72,2.76h-2.77l-1.25-2.22c-0.98-1.75-1.77-2.84-2.38-3.28c-0.42-0.32-1.02-0.49-1.82-0.49h-1.34
		v5.98H553.96z M556.23,806.5h2.76c1.32,0,2.22-0.2,2.7-0.59c0.48-0.39,0.72-0.91,0.72-1.56c0-0.42-0.12-0.79-0.35-1.12
		c-0.23-0.33-0.55-0.58-0.96-0.74s-1.17-0.24-2.28-0.24h-2.58V806.5z"/>
</g>
<g>
	<path class="st7" d="M1059.23,699.34c3.07-4.84,9.49-6.28,14.33-3.21c4.84,3.07,6.28,9.49,3.21,14.33
		c-3.07,4.84-9.49,6.28-14.33,3.21C1057.59,710.6,1056.15,704.18,1059.23,699.34z"/>
</g>
<g>
	<path class="st7" d="M1210.51,581.77c3.07-4.84,9.49-6.28,14.33-3.21c4.84,3.07,6.28,9.49,3.21,14.33
		c-3.07,4.84-9.49,6.28-14.33,3.21C1208.87,593.03,1207.44,586.61,1210.51,581.77z"/>
</g>
<path class="st3" d="M1068,704.9c0,0,109.83-11.76,151.28-117.57"/>
</svg>
