<svg id="Layer_1" data-name="Layer 1" xmlns="http://www.w3.org/2000/svg" viewBox="0 0 300 300"><defs><style>.cls-1{fill:#174770;}.cls-2{fill:#8aa2b6;}</style></defs><path class="cls-1" d="M145.56,266a1.26,1.26,0,0,1-.64-.24Q91.75,238.59,38.55,211.43a.85.85,0,0,1-.53-.89q0-12.14,0-24.27a3.21,3.21,0,0,1,.22-1.14,84.35,84.35,0,0,1,5.62-12.68,81,81,0,0,1,18-22A72.44,72.44,0,0,1,88,136.8a92.17,92.17,0,0,1,17-3.32,108,108,0,0,1,18.77-.3,129.66,129.66,0,0,1,21.36,3.42c.35.08.57.21.49.61a1.92,1.92,0,0,0,0,.24V266Z"/><path class="cls-2" d="M38.15,75.55c1.93-.81,3.92-1.45,5.88-2.16L75.38,62.11,114,48.24l31.08-11.19a1.38,1.38,0,0,1,1,0l29.31,10.55,42.95,15.46,26.22,9.42,8.32,3c0,.25-.21.25-.34.3L200.4,96.21l-40.15,15.73-14.15,5.54a5.15,5.15,0,0,1-.56.16c-1.16-.33-2.26-.84-3.39-1.28l-41.48-16.25L77.14,90.89,42.87,77.45C41.29,76.83,39.69,76.27,38.15,75.55Z"/><path class="cls-1" d="M38.15,75.55c1.54.72,3.14,1.28,4.72,1.9L77.14,90.89l23.53,9.22,41.48,16.25c1.13.44,2.23,1,3.39,1.28,0,3.49,0,7,0,10.46,0,.37-.14.35-.42.28a100.34,100.34,0,0,0-10.47-1.77,128.44,128.44,0,0,0-18.29-.91,104.81,104.81,0,0,0-27.2,4,73.31,73.31,0,0,0-21.34,9.75,77.19,77.19,0,0,0-17.73,17.43,111,111,0,0,0-11.83,20l-.16.33c-.19-.11-.09-.28-.09-.41q0-50.4,0-100.78C38,75.91,37.93,75.69,38.15,75.55Z"/><path class="cls-1" d="M155.9,262.49v-.75q0-48.88,0-97.79a.93.93,0,0,1,.69-1c6-2.56,12.07-5.17,18.11-7.73a19.85,19.85,0,0,1,5.82-1.52,8.22,8.22,0,0,1,9.14,5.41,19,19,0,0,1,1.4,6.56c.29,7.19.18,14.38.08,21.57a32.34,32.34,0,0,1-3.57,14.63,29.76,29.76,0,0,1-13.33,12.88q-3.21,1.65-6.45,3.22a.87.87,0,0,0-.58.92q0,18.57,0,37.14a.88.88,0,0,1-.57.93q-5.09,2.61-10.15,5.26Zm11.31-56.11c2.68-1.4,5.38-2.46,7.86-4a9.05,9.05,0,0,0,2.44-2.26,14.57,14.57,0,0,0,2.94-9c.09-6,.05-12,0-18a9.45,9.45,0,0,0-1-4.54,3.31,3.31,0,0,0-3.41-1.9,7.19,7.19,0,0,0-2.36.68c-2,.87-3.92,1.75-5.9,2.6a.77.77,0,0,0-.56.86q0,17.38,0,34.78Z"/><path class="cls-1" d="M233.51,193c0,3.32,0,6.53,0,9.74a12.58,12.58,0,0,0,.55,4.05,7.38,7.38,0,0,0,.33.82,3,3,0,0,0,4,1.68,9.91,9.91,0,0,0,4.94-3.9,14.89,14.89,0,0,0,2.41-6.78,29.28,29.28,0,0,0-.2-9,11,11,0,0,0-3.76-6.4c-3.49-3.06-6.92-6.19-10.46-9.19A18,18,0,0,1,225,162.3a46.65,46.65,0,0,1,.68-17.5,27.41,27.41,0,0,1,7.18-13.43,21.61,21.61,0,0,1,11.07-6c4.18-.85,7.42.85,9.14,4.75a19,19,0,0,1,1.49,7.32c.08,3.88,0,7.76.05,11.63a.51.51,0,0,1-.31.55l-8.44,3.95a.71.71,0,0,1-.22.05v-.65c0-3.05,0-6.11,0-9.16a13.1,13.1,0,0,0-.58-4.17,3.38,3.38,0,0,0-2.61-2.65,4.08,4.08,0,0,0-2.23.37,8.26,8.26,0,0,0-4.17,3.88,16.59,16.59,0,0,0-1.83,6.15,28.62,28.62,0,0,0,.32,9,11.4,11.4,0,0,0,3.66,6.21c3.51,3.16,7,6.38,10.51,9.49A17.2,17.2,0,0,1,254.51,183a43.72,43.72,0,0,1-1,18.28,30.19,30.19,0,0,1-10.29,15.94,22.25,22.25,0,0,1-8.61,4.4,8.89,8.89,0,0,1-3.84.13,6.75,6.75,0,0,1-4.54-3.25,15.5,15.5,0,0,1-2-6.5,44.08,44.08,0,0,1-.21-4.87c0-2.92,0-5.84,0-8.76,0-.24-.07-.49.24-.64Z"/><path class="cls-1" d="M221.18,135.31v2.28c0,2.75,0,5.49,0,8.23a.7.7,0,0,1-.51.77l-13.88,6.14a.63.63,0,0,0-.46.68q0,14.58,0,29.15v.49l13.14-6.31v.61c0,3.37,0,6.74,0,10.11a.78.78,0,0,1-.51.84c-4,2-8,4-12,5.93a.91.91,0,0,0-.62,1q0,20.51,0,41a.84.84,0,0,1-.54.88c-3.08,1.5-6.13,3-9.2,4.55a.88.88,0,0,1-.58.19v-.62q0-47.25,0-94.5a.86.86,0,0,1,.59-1q12-5.12,24-10.27A1,1,0,0,1,221.18,135.31Z"/><path class="cls-1" d="M173.26,140.67c.19-4.8,1.28-9.47,2-14.18.41-2.69.89-5.36,1.33-8,0-.25.06-.45.33-.55l5.07-2a1.57,1.57,0,0,1,.27,0v.72c0,8.09,0,16.17,0,24.26a.86.86,0,0,1-.67,1c-.93.34-1.83.76-2.83,1.18.1-7.31-.13-14.53.08-21.75-.25,1.49-.49,3-.73,4.49l-2.64,16.33c-.1.58-.23,1.16-.28,1.74a1,1,0,0,1-.79,1.05c-.89.32-1.74.71-2.59,1.1-.39.18-.47.09-.54-.31q-1.86-9.94-3.74-19.89a.2.2,0,0,0-.12-.15c.05,1,.11,2,.14,2.93.16,6.26,0,12.53.08,18.8a.48.48,0,0,1-.34.52c-.94.39-1.88.78-2.81,1.19-.36.16-.46.12-.46-.3,0-1.45,0-2.9,0-4.35,0-6.91,0-13.83,0-20.74a.72.72,0,0,1,.54-.8q2.4-.93,4.79-1.92c.36-.15.46,0,.52.3,1,5,1.95,10.09,2.9,15.15C173.07,137.79,173.09,139.24,173.26,140.67Z"/><path class="cls-1" d="M212.56,128.7V128c0-7.93,0-15.86,0-23.79a.75.75,0,0,1,.58-.84c1.72-.65,3.42-1.36,5.13-2a5.84,5.84,0,0,1,2.52-.44,2.41,2.41,0,0,1,2.16,1.46,3.77,3.77,0,0,1,.37,1.35,27.6,27.6,0,0,1,0,4.81,6.37,6.37,0,0,1-2,3.9c1.7.36,2,1.66,2,3,0,2.74,0,5.48,0,8.23a.5.5,0,0,1-.37.56c-.89.36-1.77.73-2.64,1.12-.37.17-.41,0-.41-.29,0-2.61,0-5.21,0-7.82,0-2-.68-2.4-2.48-1.66-.5.21-1.17.32-1.44.7s-.07,1-.08,1.55c0,2.93,0,5.87,0,8.81a.72.72,0,0,1-.55.8C214.51,127.86,213.59,128.27,212.56,128.7ZM216,109.32c0,1.21,0,2.43,0,3.64,0,.38,0,.56.46.35s1-.41,1.52-.63a3.23,3.23,0,0,0,1.91-2.37,13,13,0,0,0,.11-2.57,20.19,20.19,0,0,0,0-2.06c-.11-1.15-.8-1.58-1.88-1.2-.57.2-1.12.46-1.69.66a.5.5,0,0,0-.4.59C216,106.93,216,108.12,216,109.32Z"/><path class="cls-1" d="M186.48,139.73v-.62q0-12.21,0-24.44a.72.72,0,0,1,.53-.81c1.92-.73,3.82-1.51,5.73-2.25a6.16,6.16,0,0,1,2.17-.47,2.47,2.47,0,0,1,2.84,2.21,25.07,25.07,0,0,1-.08,8.29,7.28,7.28,0,0,1-3.51,4.73A19.8,19.8,0,0,1,190.6,128a.69.69,0,0,0-.52.76c0,3,0,5.91,0,8.87a.68.68,0,0,1-.51.77C188.57,138.83,187.57,139.27,186.48,139.73Zm3.61-19.36c0,1.41,0,2.82,0,4.23,0,.47.13.53.53.34s1.08-.46,1.62-.68a3.17,3.17,0,0,0,2.08-2.69,35.28,35.28,0,0,0,0-5.63c-.07-1.06-.82-1.47-1.84-1.13-.67.22-1.31.52-2,.75a.58.58,0,0,0-.44.64C190.11,117.59,190.09,119,190.09,120.37Z"/><path class="cls-1" d="M232.4,120.31c.15-1.1.29-2.1.44-3.1l2.07-14c.43-2.89.86-5.77,1.28-8.66a.55.55,0,0,1,.4-.49c1.2-.47,2.4-.94,3.59-1.44.37-.16.43,0,.47.3l2.85,17.37c.25,1.53.49,3.05.77,4.57.06.37,0,.52-.36.65-.82.31-1.64.65-2.43,1-.4.18-.49.06-.54-.32-.2-1.61-.43-3.21-.62-4.83-.06-.46-.16-.6-.64-.38-.89.41-1.79.78-2.7,1.13a.67.67,0,0,0-.48.63c-.21,1.83-.45,3.65-.65,5.48a1,1,0,0,1-.71,1C234.24,119.5,233.37,119.9,232.4,120.31Zm4.6-10.9,2-.81c.87-.36.85-.36.72-1.31-.31-2.33-.61-4.65-.9-7-.15-1.16-.25-2.32-.37-3.48C238.07,101,237.44,105.15,237,109.41Z"/><path class="cls-1" d="M209.72,127c0,.88,0,1.75,0,2.63,0,.26-.17.33-.35.4-2.65,1.12-5.3,2.23-7.94,3.36-.58.25-.4-.18-.4-.41q0-8.58,0-17.16c0-2.35,0-4.7,0-7a.65.65,0,0,1,.48-.73c2.58-1,5.15-2,7.72-3.09.42-.18.53-.11.51.35,0,.68,0,1.37,0,2.05a.56.56,0,0,1-.44.64c-1.43.56-2.86,1.17-4.3,1.72a.61.61,0,0,0-.46.68c0,2.19,0,4.39,0,6.58,0,.47.12.51.53.34,1.19-.51,2.39-1,3.58-1.48.43-.19.49-.06.48.34,0,.71,0,1.41,0,2.12a.56.56,0,0,1-.44.63c-1.24.49-2.46,1-3.69,1.51a.58.58,0,0,0-.46.62q0,3.77,0,7.53c0,.44.11.48.49.31l4-1.71A1.11,1.11,0,0,1,209.72,127Z"/><path class="cls-1" d="M159.69,124.82v.51q0,12.6,0,25.19a.68.68,0,0,1-.52.76c-.93.36-1.84.75-2.75,1.17-.47.22-.53.08-.53-.38q0-9.88,0-19.79c0-1.82,0-3.64,0-5.46a.61.61,0,0,1,.46-.69C157.45,125.72,158.54,125.28,159.69,124.82Z"/><path class="cls-1" d="M246.41,114.39v-.68q0-11.49,0-23a.81.81,0,0,1,.64-.91c.76-.26,1.5-.57,2.24-.88.3-.13.38-.06.36.24,0,.14,0,.28,0,.42V110c.2.12.35,0,.49-.09,1.28-.53,2.57-1.06,3.84-1.61.33-.15.48-.16.46.28,0,.78.23,1.7-.1,2.31s-1.31.66-2,1C250.38,112.72,248.44,113.53,246.41,114.39Z"/><path class="cls-1" d="M230.26,96.56v.65q0,11.7,0,23.38a.8.8,0,0,1-.61.89c-.9.35-1.79.74-2.76,1.15V122c0-7.83,0-15.66,0-23.49a.74.74,0,0,1,.58-.84C228.39,97.33,229.28,96.94,230.26,96.56Z"/><path class="cls-1" d="M263.18,225.79a8.87,8.87,0,1,1,8.87-8.81A8.83,8.83,0,0,1,263.18,225.79Zm7.39-8.87a7.38,7.38,0,1,0-7.36,7.41A7.36,7.36,0,0,0,270.57,216.92Z"/><path class="cls-1" d="M264.1,217.58c1.53,1.08,2.17,2.74,3.21,4.21a9.79,9.79,0,0,1-1.69.06c-.25,0-.3-.22-.39-.38-.52-.9-1-1.8-1.6-2.66a2.49,2.49,0,0,0-2.51-1c-.33,0-.26.23-.26.41,0,1,0,2.08,0,3.11,0,.45-.12.57-.56.56-1,0-1,0-1-1,0-2.68,0-5.36,0-8,0-.43.1-.58.55-.57,1.31.06,2.62,0,3.93.08,1.74.15,2.76,1,2.87,2.29C266.76,216.14,265.85,217.2,264.1,217.58Zm-1.89-4v0h-1c-.23,0-.36.06-.35.33,0,.76,0,1.52,0,2.28,0,.19.06.29.27.29a14.79,14.79,0,0,0,2.74-.12A1.31,1.31,0,0,0,265,215a1.34,1.34,0,0,0-1.28-1.28C263.22,213.61,262.72,213.6,262.21,213.56Z"/></svg>